<svg width="100" height="81" viewBox="0 0 100 81" fill="none" xmlns="http://www.w3.org/2000/svg">
<path d="M19.3669 53.2656C23.4037 55.9791 27.7338 57.6461 32.4529 57.9083V57.1079C27.9222 56.5617 23.5747 55.2118 19.3669 53.2656Z" fill="#FDB927"/>
<path d="M35.3234 24.395L32.6295 47.6956L40.1583 47.2795L41.1252 35.3517L44.7861 47.0022L48.5968 46.6876L51.624 36.3921L52.8673 46.378L58.8764 45.9249L55.8374 26.4755L49.4138 26.1287L46.5818 36.8775L43.4737 25.4351L35.3234 24.395Z" fill="#808080"/>
<path d="M59.1528 26.7183L59.3052 45.9452L69.0786 45.1656L69.0643 41.1771H64.8165L64.7819 39.1314L68.6155 39.0966V34.6237L64.8165 34.5892L64.7475 32.6821L69.0299 32.8208L68.9606 27.7931L59.1528 26.7183Z" fill="#808080"/>
<path d="M78.7485 34.4737L82.1676 32.3933C81.3702 31.1129 80.8574 29.7639 78.7138 28.718C77.44 28.0242 75.1865 27.7885 73.6373 28.7525C71.3898 29.9556 69.9694 32.5742 69.9764 34.9939C69.8234 37.4226 69.9173 39.88 71.1507 41.9286C73.2001 45.3468 76.1367 45.4499 78.973 44.4251C80.305 43.8575 82.2221 41.9879 82.271 39.3282L82.4783 35.5834L76.6073 35.4445L76.5727 39.0159L78.4031 39.0507C78.2989 39.8999 78.0165 40.4862 76.4 40.5762C75.776 40.5118 74.2324 40.2829 74.2934 38.2533L74.4315 34.8378C74.4664 34.087 75.5004 32.9098 76.8144 32.9482C77.589 32.9703 78.2919 33.3354 78.7485 34.4737Z" fill="#808080"/>
<path d="M85.8192 29.1479L82.2579 44.1488L85.7446 43.9193L86.1273 42.0514H88.5725L88.8425 43.6749L92.0039 43.4346L89.5399 29.3612L85.8192 29.1479ZM87.6051 34.1109L88.3385 38.7535L86.712 38.7214L87.6051 34.1109Z" fill="#808080"/>
<path d="M36.4954 23.6113L33.8018 46.9119L41.3303 46.4958L42.2975 34.568L45.9581 46.2183L49.7688 45.9039L52.796 35.6084L54.0393 45.5943L60.0484 45.141L57.0094 25.6915L50.5858 25.345L47.7538 36.0938L44.6457 24.6514L36.4954 23.6113Z" fill="white"/>
<path d="M60.325 25.9351L60.4773 45.162L70.2509 44.3823L70.2366 40.3939H65.9887L65.9543 38.3482L69.7876 38.3134V33.8405L65.9887 33.8057L65.9196 31.8987L70.202 32.0375L70.133 27.0099L60.325 25.9351Z" fill="white"/>
<path d="M79.9205 33.6901L83.3396 31.6097C82.5423 30.3293 82.0295 28.9801 79.8861 27.9344C78.6121 27.2403 76.3585 27.0049 74.8093 27.9689C72.5618 29.172 71.1414 31.7906 71.1487 34.2103C70.9956 36.639 71.0894 39.0963 72.323 41.1449C74.3723 44.5632 77.3087 44.6663 80.1451 43.6415C81.4772 43.0739 83.3941 41.2043 83.4433 38.5443L83.6504 34.7998L77.7793 34.6609L77.745 38.2323L79.5754 38.2671C79.471 39.116 79.1886 39.7026 77.5723 39.7926C76.9483 39.7281 75.4044 39.4993 75.4655 37.4694L75.6038 34.0542C75.6384 33.3034 76.6724 32.1262 77.9867 32.1644C78.7611 32.1867 79.4642 32.5518 79.9205 33.6901Z" fill="white"/>
<path d="M86.9912 28.3638L83.4299 43.3649L86.9169 43.1353L87.2996 41.2674H89.7445L90.0146 42.8909L93.1762 42.6504L90.7119 28.5773L86.9912 28.3638ZM88.7771 33.3267L89.5107 37.9696L87.8843 37.9375L88.7771 33.3267Z" fill="white"/>
<path d="M37.0817 23.2188L34.3878 46.5195L41.9166 46.1034L42.8835 34.1757L46.5444 45.826L50.3551 45.5115L53.3823 35.216L54.6256 45.202L60.6347 44.7487L57.5957 25.2992L51.1721 24.9527L48.3401 35.7014L45.232 24.2591L37.0817 23.2188Z" fill="#EE1D25"/>
<path d="M60.911 25.541L61.0634 44.7682L70.8367 43.9885L70.8224 40.0001H66.5747L66.5401 37.9542L70.3736 37.9196V33.4467L66.5747 33.4119L66.5057 31.5049L70.7881 31.6437L70.7188 26.6159L60.911 25.541Z" fill="#EE1D25"/>
<path d="M80.5067 33.2985L83.9258 31.2181C83.1284 29.9377 82.6156 28.5885 80.472 27.5426C79.1982 26.8488 76.9447 26.6134 75.3954 27.5774C73.1479 28.7804 71.7276 31.399 71.7346 33.8187C71.5815 36.2474 71.6755 38.7045 72.9089 40.7534C74.9582 44.1716 77.8949 44.2747 80.7312 43.2499C82.0631 42.6823 83.9803 40.8127 84.0292 38.1527L84.2365 34.4079L78.3655 34.2693L78.3308 37.8407L80.1613 37.8755C80.0571 38.7245 79.7747 39.311 78.1584 39.401C77.5342 39.3366 75.9906 39.1077 76.0516 37.0779L76.1897 33.6626C76.2245 32.9119 77.2586 31.7346 78.5728 31.7728C79.3472 31.7952 80.0501 32.1602 80.5067 33.2985Z" fill="#EE1D25"/>
<path d="M87.5774 27.9707L84.0161 42.9718L87.5028 42.7422L87.8855 40.8743H90.3307L90.6007 42.4978L93.7621 42.2573L91.2981 28.1842L87.5774 27.9707ZM89.3633 32.9336L90.0967 37.5765L88.4702 37.5444L89.3633 32.9336Z" fill="#EE1D25"/>
<path d="M38.6923 33.0905C38.6923 38.6631 34.2546 43.1805 28.7806 43.1805C23.3068 43.1805 18.8691 38.6631 18.8691 33.0905C18.8691 27.5179 23.3068 23.0005 28.7806 23.0005C34.2546 23.0005 38.6923 27.5179 38.6923 33.0905Z" fill="#FDB927"/>
<path d="M38.6923 33.0905C38.6923 38.6631 34.2546 43.1805 28.7806 43.1805C23.3068 43.1805 18.8691 38.6631 18.8691 33.0905C18.8691 27.5179 23.3068 23.0005 28.7806 23.0005C34.2546 23.0005 38.6923 27.5179 38.6923 33.0905Z" fill="url(#paint0_radial_104_3860)"/>
<path d="M39.2785 32.6984C39.2785 38.271 34.8408 42.7884 29.3668 42.7884C23.8927 42.7884 19.4551 38.271 19.4551 32.6984C19.4551 27.1258 23.8927 22.6084 29.3668 22.6084C34.8408 22.6084 39.2785 27.1258 39.2785 32.6984Z" fill="url(#paint1_radial_104_3860)"/>
<path d="M27.669 33.3061L25.139 32.0321L22.5425 34.1626L23.4978 31.1919L19.7919 29.2138L23.8613 29.3412L24.7033 26.646L25.7671 29.3154L28.6758 29.3077L26.6068 30.9027L27.669 33.3061Z" fill="#214489"/>
<path d="M32.2868 28.4147L30.1005 27.5937L28.5535 29.3488L28.6315 26.7623L26.2711 25.1901L28.7521 25.0055L28.9885 23.1143L30.2766 24.9951L32.287 24.954L31.1021 26.3953L32.2868 28.4147Z" fill="#214489"/>
<path d="M36.5503 29.256L35.1258 29.0261L34.6491 30.6334L33.8915 28.7825L32.3083 28.4213L33.736 27.542L33.5451 25.6768L34.7017 26.9841L35.8304 26.1989L35.454 27.88L36.5503 29.256Z" fill="#214489"/>
<path d="M36.4841 35.4061L35.5009 33.6152L34.0057 33.8125L35.0698 32.5236L34.5614 30.7167L35.7124 31.5632L36.6992 30.3872L36.6696 32.1732L38.003 32.9844L36.5466 33.2388L36.4841 35.4061Z" fill="#214489"/>
<path d="M29.2631 40.058L27.4181 38.6524L24.3209 40.9582L25.7236 37.8946L22.8938 35.7998L26.7077 35.8854L27.6485 33.3125L28.5425 35.7959L30.9453 35.862L28.8743 37.3545L29.2631 40.058Z" fill="#214489"/>
<path d="M36.2532 36.5993L34.2685 36.2578L33.9914 33.9053L32.9358 36.0718L30.9293 35.8559L32.2617 37.536L31.2987 39.7551L33.1778 38.6272L34.5076 40.0819L34.4179 37.8371L36.2532 36.5993Z" fill="#214489"/>
<path d="M25.8368 44.7523C32.0881 47.8495 38.2079 44.5461 39.9841 38.8203C36.9569 43.5794 29.6003 45.2868 25.8368 44.7523Z" fill="#FDB927"/>
<path d="M18.6961 28.7115C19.3389 26.6916 21.2761 24.099 23.3936 23.4351C22.69 22.9988 18.9807 20.0383 13.0413 21.0239C7.6823 22.2576 8.25127 28.3829 9.0312 30.86C9.08739 29.3783 8.92971 27.3606 9.8431 26.1843C10.2946 25.6731 13.0362 24.5066 18.4105 28.4746C18.8402 28.7888 17.4848 27.7434 18.6961 28.7115Z" fill="#FDB927"/>
<path d="M17.7426 30.0722C16.1071 28.5343 14.2666 27.352 11.9909 26.457C9.26456 38.2719 19.7309 47.1939 26.402 51.6865C20.8514 50.6695 6.51106 41.0576 6.66753 27.6049C6.63459 26.6871 7.25587 19.9691 14.5555 19.748C19.2526 19.8436 21.2344 20.9054 23.1549 21.8008" stroke="#FDB927" stroke-width="2.95"/>
<path d="M17.5021 30.3374L18.2314 31.0091L18.4341 30.1864L17.9429 29.7715L17.63 30.0054L17.472 30.1713L17.5021 30.3374Z" fill="#FDB927"/>
<path d="M22.9745 22.1119C23.5071 22.4055 24.0293 22.7012 24.5305 23.0015L25.6355 22.76C24.8374 22.3264 23.8566 21.7068 23.2659 21.459L23.0346 21.7338L22.9745 22.1119Z" fill="#FDB927"/>
<path d="M24.2816 51.4281C25.5746 51.9701 28.0795 52.5769 30.0989 52.4594C27.9914 52.0219 27.4696 52.0389 25.8679 50.8965L24.9433 51.0079L24.2816 51.4281Z" fill="#FDB927"/>
<path d="M10.6474 26.8281C9.61702 30.3271 10.38 34.3861 12.271 38.9636C10.0855 35.2197 6.92796 31.5313 10.6474 26.8281Z" fill="#EE1D25"/>
<path d="M18.2843 24.896C16.0442 28.9667 15.5373 33.1018 17.6228 37.3335C16.4747 33.1876 16.8692 29.0418 18.2843 24.896Z" fill="#EE1D25"/>
<path d="M92.7321 46.3478L92.1481 47.9896L91.2139 47.5907C90.449 47.4083 90.3611 48.3166 90.7699 48.3881L91.6809 48.6226C92.2407 48.8035 92.4536 49.2332 92.5686 49.5138C92.8319 50.4433 92.6079 50.8292 92.4984 51.3428C92.1363 52.3246 91.452 52.7472 90.6064 52.8907C89.5451 53.049 89.009 52.8377 88.3643 52.703L89.0882 50.7332C89.2205 51.2434 89.8175 51.2585 89.976 51.2959C90.3293 51.3866 90.611 51.2431 90.7467 51.0615C90.9426 50.7205 90.7203 50.4827 90.5132 50.4049L89.4855 50.1938C88.8666 50.0282 88.6932 49.2728 88.5861 48.822C88.5176 48.2225 88.5888 47.6897 88.8957 47.1756C89.1372 46.717 89.4203 46.4103 89.8466 46.0852C90.2383 45.8238 90.9344 45.7197 91.4707 45.8084C92.3368 45.9884 92.3836 46.1681 92.7321 46.3478Z" fill="#808080"/>
<path d="M32.9532 48.957L31.3313 60.8537L36.521 60.1691L36.6477 54.0233L39.3058 59.7228L42.0065 59.3792L43.8936 53.3458L44.8416 58.9991L48.8011 58.405L46.5926 48.4639L42.0014 48.5317L40.3829 54.6566L38.3146 48.7309L32.9532 48.957Z" fill="#808080"/>
<path d="M49.838 48.2935L53.9419 47.9966L54.0809 57.6581L50.227 58.2133L49.838 48.2935Z" fill="#808080"/>
<path d="M55.5823 47.8779L59.3233 47.6748L59.3618 54.0212L62.2502 53.7299L62.2391 56.5812L55.631 57.5219L55.5823 47.8779Z" fill="#808080"/>
<path d="M69.6661 47.182L72.5112 46.9585L72.5429 55.1833L69.6661 55.6336V47.182Z" fill="#808080"/>
<path d="M80.7259 52.1972C79.7055 54.2957 77.3494 55.31 75.4635 54.4627C73.5777 53.6157 72.876 51.2279 73.8964 49.1294C74.9169 47.031 77.2731 46.0169 79.159 46.8639C81.0449 47.7112 81.7464 50.099 80.7259 52.1972Z" fill="#808080"/>
<path d="M63.111 47.5581L66.2852 47.3687L66.3179 53.2929L68.7689 53.021L68.7594 55.6824L63.1524 56.5608L63.111 47.5581Z" fill="#808080"/>
<path d="M81.9264 46.3655L81.869 53.9473L83.9118 53.6708L83.9806 49.7069L85.6563 53.3712L87.8139 53.2328L87.9745 46.0659L85.9317 46.1812L86.0121 50.237L84.1185 46.2388L81.9264 46.3655Z" fill="#808080"/>
<path d="M93.5096 45.6105L92.9256 47.252L91.9911 46.8534C91.2265 46.6711 91.1385 47.5793 91.5474 47.6508L92.4584 47.8853C93.0181 48.0662 93.231 48.4959 93.3461 48.7763C93.6091 49.7058 93.3853 50.0919 93.2759 50.6056C92.9137 51.5871 92.2292 52.0097 91.3839 52.1534C90.3223 52.3115 89.7865 52.1004 89.1417 51.9657L89.8657 49.9959C89.998 50.5061 90.595 50.5209 90.7534 50.5586C91.1068 50.6493 91.3885 50.5058 91.5242 50.3242C91.7201 49.983 91.4978 49.7454 91.2904 49.6676L90.2627 49.4565C89.6441 49.2909 89.4706 48.5356 89.3636 48.0847C89.2948 47.485 89.366 46.9524 89.6731 46.4381C89.9146 45.9797 90.1975 45.673 90.6241 45.3476C91.0157 45.0865 91.7116 44.9824 92.2481 45.0711C93.1141 45.2508 93.1608 45.4308 93.5096 45.6105Z" fill="white"/>
<path d="M33.6883 48.2615L32.0662 60.1581L37.2559 59.4735L37.3825 53.3278L40.0409 59.0271L42.7413 58.6837L44.6287 52.65L45.5765 58.3033L49.5359 57.7095L47.3274 47.7681L42.7362 47.8359L41.1177 53.961L39.0495 48.0353L33.6883 48.2615Z" fill="white"/>
<path d="M50.5303 47.5989L54.6344 47.3018L54.7731 56.9635L50.9195 57.5187L50.5303 47.5989Z" fill="white"/>
<path d="M56.2749 47.0112L60.0157 46.8081L60.0544 53.1545L62.9426 52.8634L62.9315 55.7145L56.3236 56.6554L56.2749 47.0112Z" fill="white"/>
<path d="M70.4894 46.3558L73.3342 46.1323L73.3661 54.3569L70.4894 54.8072V46.3558Z" fill="white"/>
<path d="M81.5492 51.3716C80.5288 53.4698 78.1725 54.4842 76.2866 53.6371C74.4007 52.7899 73.6993 50.4021 74.7197 48.3036C75.7402 46.2054 78.0962 45.1911 79.9821 46.0384C81.868 46.8854 82.5697 49.2732 81.5492 51.3716Z" fill="white"/>
<path d="M63.9309 46.7344L67.1054 46.5449L67.1381 52.4694L69.5888 52.1975L69.5794 54.8589L63.9723 55.7373L63.9309 46.7344Z" fill="white"/>
<path d="M82.7466 45.6268L82.6892 53.2083L84.7318 52.9318L84.8008 48.9681L86.4762 52.6322L88.6339 52.494L88.7945 45.3271L86.7516 45.4424L86.832 49.4983L84.9384 45.5001L82.7466 45.6268Z" fill="white"/>
<path d="M93.8637 45.299L93.2797 46.9407L92.3455 46.5419C91.5806 46.3598 91.4927 47.2678 91.9018 47.3393L92.8127 47.5737C93.3725 47.7549 93.5852 48.1846 93.7002 48.465C93.9635 49.3945 93.7395 49.7804 93.6302 50.2942C93.2681 51.2757 92.5836 51.6984 91.7383 51.8419C90.6766 52.0002 90.1409 51.7889 89.4958 51.6544L90.2201 49.6843C90.3523 50.1945 90.9491 50.2096 91.1075 50.2473C91.4612 50.3378 91.7426 50.1943 91.8783 50.0126C92.0742 49.6717 91.8521 49.4339 91.6448 49.356L90.6171 49.145C89.9982 48.9796 89.8248 48.224 89.7177 47.7731C89.6492 47.1737 89.7204 46.6411 90.0275 46.1268C90.2688 45.6681 90.5519 45.3615 90.9782 45.0363C91.3699 44.7749 92.066 44.6708 92.6025 44.7596C93.4684 44.9396 93.5152 45.1193 93.8637 45.299Z" fill="#33337A"/>
<path d="M34.0852 47.9089L32.4631 59.8053L37.6528 59.121L37.7795 52.975L40.4378 58.6745L43.1383 58.3312L45.0256 52.2975L45.9734 57.9508L49.9329 57.3567L47.7244 47.4155L43.1332 47.4834L41.5147 53.6082L39.4464 47.6828L34.0852 47.9089Z" fill="#33337A"/>
<path d="M50.9697 47.3301L55.0738 47.0332L55.2126 56.6949L51.3587 57.2499L50.9697 47.3301Z" fill="#33337A"/>
<path d="M56.714 46.8285L60.455 46.6255L60.4935 52.9719L63.3819 52.6806L63.3708 55.5319L56.7627 56.4728L56.714 46.8285Z" fill="#33337A"/>
<path d="M70.7981 46.1327L73.6429 45.9092L73.6747 54.1339L70.7981 54.5843V46.1327Z" fill="#33337A"/>
<path d="M81.8577 51.1491C80.8372 53.2473 78.4812 54.2616 76.5953 53.4144C74.7094 52.5674 74.0077 50.1795 75.0281 48.0811C76.0488 45.9829 78.4049 44.9685 80.2908 45.8156C82.1767 46.6628 82.8781 49.0507 81.8577 51.1491Z" fill="#33337A"/>
<path d="M64.2426 46.4663L67.417 46.2769L67.4497 52.2011L69.9005 51.9295L69.9336 54.6337L64.284 55.4693L64.2426 46.4663Z" fill="#33337A"/>
<path d="M83.058 45.3167L83.0009 52.8985L85.0435 52.622L85.1125 48.6583L86.7879 52.3224L88.9455 52.184L89.1061 45.0171L87.0633 45.1324L87.1437 49.1882L85.2501 45.19L83.058 45.3167Z" fill="#33337A"/>
<path d="M78.752 46.6748L78.144 48.6001L75.5249 48.835L77.6295 50.1027L77.0683 52.4507L78.8455 50.8542L80.4826 51.6054L79.8746 49.8681L81.3245 48.4593L79.5472 48.5532L78.752 46.6748Z" fill="white"/>
<defs>
<radialGradient id="paint0_radial_104_3860" cx="0" cy="0" r="1" gradientUnits="userSpaceOnUse" gradientTransform="translate(24.7896 29.8561) rotate(71.5918) scale(10.5672 11.3086)">
<stop stop-color="#FFF6D5"/>
<stop offset="1" stop-color="#FFF6D5" stop-opacity="0"/>
</radialGradient>
<radialGradient id="paint1_radial_104_3860" cx="0" cy="0" r="1" gradientUnits="userSpaceOnUse" gradientTransform="translate(25.5335 29.8898) rotate(75.0572) scale(4.27653 5.12506)">
<stop stop-color="#FFF6D5"/>
<stop offset="1" stop-color="#FFF6D5" stop-opacity="0"/>
</radialGradient>
</defs>
</svg>
