<svg width="45" height="27" viewBox="0 0 45 27" fill="none" xmlns="http://www.w3.org/2000/svg">
<g clip-path="url(#clip0_104_4730)">
<rect x="0.733093" y="0.407227" width="44" height="26.4" rx="4" fill="#F7931A"/>
<g clip-path="url(#clip1_104_4730)">
<path fill-rule="evenodd" clip-rule="evenodd" d="M16.069 10.9441C16.3507 10.9441 16.5938 10.9942 16.7983 11.0929C17.0036 11.1925 17.1733 11.3266 17.3092 11.4952C17.4433 11.6647 17.5432 11.863 17.6076 12.0899C17.6717 12.3177 17.7038 12.5624 17.7038 12.8245C17.7038 13.2268 17.6298 13.6073 17.48 13.9658C17.3305 14.3247 17.1273 14.636 16.869 14.9017C16.6109 15.167 16.3062 15.3761 15.9548 15.5305C15.6039 15.6853 15.2225 15.7624 14.8129 15.7624C14.76 15.7624 14.6669 15.7611 14.5353 15.7581C14.4038 15.7555 14.2525 15.7421 14.0832 15.7192C13.9128 15.6957 13.7327 15.6607 13.5423 15.6138C13.3522 15.5678 13.1716 15.5033 13.0015 15.4214L14.5221 9.0646L15.8841 8.85449L15.3397 11.1102C15.4563 11.0579 15.5737 11.0173 15.6909 10.988C15.8087 10.9595 15.9344 10.9441 16.069 10.9441ZM14.9266 14.6877C15.1317 14.6877 15.3249 14.6376 15.5065 14.5389C15.6886 14.4404 15.8458 14.3072 15.9773 14.1411C16.1088 13.9746 16.2132 13.7868 16.2892 13.5769C16.3652 13.3672 16.4036 13.1485 16.4036 12.9206C16.4036 12.641 16.3567 12.4227 16.2629 12.2651C16.1692 12.1079 15.996 12.029 15.7442 12.029C15.6617 12.029 15.5554 12.0446 15.4236 12.0724C15.2914 12.1025 15.1731 12.164 15.067 12.2566L14.4873 14.6525C14.5222 14.6583 14.5533 14.6644 14.5795 14.6698C14.6054 14.6756 14.6338 14.6799 14.6622 14.6829C14.6924 14.6864 14.7267 14.6879 14.7681 14.6879C14.8096 14.6879 14.8621 14.6877 14.9266 14.6877Z" fill="white"/>
<path fill-rule="evenodd" clip-rule="evenodd" d="M19.1171 15.6403H17.8161L18.9148 11.0411H20.2247L19.1171 15.6403ZM19.75 10.4812C19.5683 10.4812 19.4038 10.4272 19.2577 10.3196C19.1104 10.2125 19.0374 10.0476 19.0374 9.82536C19.0374 9.70314 19.0624 9.58826 19.1119 9.48029C19.162 9.37232 19.2278 9.27903 19.31 9.20021C19.3923 9.12183 19.4874 9.05921 19.5955 9.01192C19.7042 8.96549 19.8199 8.94238 19.9432 8.94238C20.1246 8.94238 20.2885 8.99615 20.435 9.10391C20.5811 9.21209 20.6546 9.37707 20.6546 9.59797C20.6546 9.72063 20.6299 9.83594 20.5798 9.94391C20.5301 10.0519 20.4645 10.1447 20.3822 10.224C20.3009 10.3024 20.2047 10.3648 20.0968 10.4116C19.9881 10.4587 19.8731 10.4812 19.75 10.4812Z" fill="white"/>
<path fill-rule="evenodd" clip-rule="evenodd" d="M21.3641 9.89566L22.7267 9.68555L22.392 11.041H23.8512L23.5877 12.1075H22.1372L21.7509 13.7165C21.7153 13.8506 21.6951 13.9758 21.6894 14.092C21.6832 14.209 21.6979 14.3095 21.7331 14.3939C21.768 14.4785 21.831 14.5437 21.9221 14.5902C22.0128 14.637 22.1429 14.6606 22.313 14.6606C22.4532 14.6606 22.59 14.6474 22.7222 14.6208C22.8535 14.5951 22.9867 14.5589 23.1215 14.5116L23.2185 15.509C23.0427 15.5731 22.8524 15.6284 22.6473 15.6748C22.4419 15.7217 22.1986 15.7444 21.9176 15.7444C21.5134 15.7444 21.2 15.685 20.9769 15.566C20.754 15.4462 20.5964 15.2827 20.502 15.0756C20.4089 14.8694 20.3674 14.6314 20.3791 14.3634C20.3913 14.0948 20.4319 13.8124 20.502 13.515L21.3641 9.89566V9.89566Z" fill="white"/>
<path fill-rule="evenodd" clip-rule="evenodd" d="M23.7938 13.8044C23.7938 13.4082 23.8582 13.0348 23.9872 12.6848C24.1156 12.3347 24.301 12.0288 24.5415 11.766C24.7811 11.5045 25.0728 11.2974 25.4162 11.1456C25.758 10.9942 26.1407 10.918 26.5626 10.918C26.8266 10.918 27.0625 10.9426 27.27 10.9925C27.4783 11.0426 27.667 11.1076 27.8373 11.189L27.3887 12.2041C27.2715 12.1568 27.1497 12.1151 27.0241 12.0771C26.8982 12.0387 26.7445 12.0201 26.5628 12.0201C26.1287 12.0201 25.7854 12.1689 25.5299 12.4656C25.2755 12.7627 25.1473 13.1624 25.1473 13.6641C25.1473 13.9614 25.2117 14.2015 25.3411 14.3855C25.4698 14.5693 25.7075 14.6606 26.0528 14.6606C26.2232 14.6606 26.3875 14.6429 26.545 14.6084C26.7037 14.5734 26.8437 14.5296 26.9672 14.4773L27.0642 15.5177C26.8997 15.5814 26.7182 15.6388 26.5192 15.6889C26.3197 15.7375 26.0823 15.7623 25.8069 15.7623C25.4435 15.7623 25.1358 15.7097 24.8842 15.6054C24.6324 15.4995 24.4243 15.359 24.2604 15.181C24.0957 15.0027 23.9774 14.7943 23.9042 14.5552C23.8309 14.3171 23.7938 14.0661 23.7938 13.8044H23.7938Z" fill="white"/>
<path fill-rule="evenodd" clip-rule="evenodd" d="M29.5725 15.7626C29.2619 15.7626 28.9923 15.7158 28.7636 15.6227C28.5354 15.5294 28.3466 15.3988 28.1971 15.2293C28.0475 15.0606 27.9353 14.8606 27.8587 14.6305C27.7819 14.4005 27.7452 14.1455 27.7452 13.8662C27.7452 13.5158 27.8018 13.1655 27.916 12.8161C28.0297 12.4663 28.1984 12.1519 28.4219 11.8723C28.6435 11.5922 28.9168 11.3633 29.2389 11.1847C29.5603 11.0076 29.9304 10.9185 30.3458 10.9185C30.6506 10.9185 30.9191 10.9655 31.1509 11.0586C31.3816 11.1519 31.5717 11.2834 31.7221 11.452C31.8708 11.6216 31.9839 11.8207 32.0598 12.0513C32.1365 12.2808 32.174 12.5365 32.174 12.8159C32.174 13.1653 32.1182 13.5156 32.0075 13.866C31.8966 14.2146 31.7323 14.5298 31.5153 14.8099C31.2987 15.0895 31.0278 15.3182 30.7024 15.4962C30.3771 15.6737 30.0001 15.7626 29.5725 15.7626ZM30.2226 12.0204C30.0296 12.0204 29.8592 12.0762 29.7132 12.1863C29.5667 12.2975 29.4436 12.4374 29.3444 12.6061C29.2441 12.7754 29.1697 12.9606 29.1195 13.1612C29.0698 13.3627 29.0453 13.553 29.0453 13.7339C29.0453 14.0257 29.0926 14.2528 29.1855 14.4165C29.2799 14.5791 29.4492 14.6609 29.6956 14.6609C29.8892 14.6609 30.0587 14.6057 30.2056 14.4945C30.3513 14.3841 30.4743 14.2442 30.5744 14.0751C30.674 13.9067 30.7491 13.721 30.7993 13.5199C30.8485 13.3191 30.8735 13.1278 30.8735 12.9473C30.8735 12.6562 30.8264 12.4286 30.7326 12.2651C30.6389 12.1021 30.4687 12.0204 30.2226 12.0204Z" fill="white"/>
<path fill-rule="evenodd" clip-rule="evenodd" d="M33.5914 15.6403H32.2896L33.3882 11.0411H34.6988L33.5914 15.6403ZM34.2234 10.4812C34.0419 10.4812 33.8774 10.4272 33.7315 10.3196C33.5848 10.2125 33.5112 10.0476 33.5112 9.82536C33.5112 9.70314 33.5364 9.58826 33.5861 9.48029C33.6358 9.37232 33.7018 9.27903 33.7841 9.20021C33.8659 9.12183 33.9618 9.05921 34.0697 9.01192C34.1778 8.96549 34.2935 8.94238 34.4165 8.94238C34.5984 8.94238 34.7627 8.99615 34.909 9.10391C35.0555 9.21209 35.1293 9.37707 35.1293 9.59797C35.1293 9.72063 35.1031 9.83594 35.0538 9.94391C35.0045 10.0519 34.9388 10.1447 34.8567 10.224C34.7742 10.3024 34.6796 10.3648 34.5715 10.4116C34.4626 10.4587 34.3471 10.4812 34.2234 10.4812Z" fill="white"/>
<path fill-rule="evenodd" clip-rule="evenodd" d="M35.6357 11.2506C35.7345 11.2219 35.8447 11.1873 35.9647 11.1498C36.0852 11.1122 36.2196 11.0772 36.3698 11.0457C36.5184 11.0133 36.686 10.9872 36.8705 10.9664C37.055 10.9457 37.2649 10.9355 37.4986 10.9355C38.1845 10.9355 38.6576 11.1342 38.9188 11.5307C39.1794 11.9271 39.2248 12.4696 39.0553 13.1569L38.4571 15.6402H37.1477L37.7276 13.2092C37.7628 13.0574 37.7908 12.9105 37.8112 12.7671C37.832 12.6253 37.8307 12.5 37.8066 12.3916C37.7838 12.2845 37.7291 12.1971 37.6447 12.129C37.5587 12.0619 37.4289 12.0286 37.2529 12.0286C37.0834 12.0286 36.9109 12.0468 36.7346 12.0818L35.8818 15.6402H34.572L35.6357 11.2506V11.2506Z" fill="white"/>
</g>
<g clip-path="url(#clip2_104_4730)">
<path fill-rule="evenodd" clip-rule="evenodd" d="M20.2796 18.7275L20.0129 19.2093H19.7245C19.9277 18.8448 20.1258 18.5091 20.319 18.2024C20.5122 17.8956 20.7031 17.606 20.8917 17.3335H21.1502C21.1774 17.4688 21.2023 17.6058 21.225 17.7436C21.2477 17.8816 21.2699 18.0264 21.2916 18.178C21.3134 18.3296 21.3343 18.4904 21.3542 18.66C21.3742 18.8297 21.395 19.0126 21.4168 19.2095H21.1502C21.1411 19.1283 21.1329 19.0467 21.1257 18.9646C21.1184 18.8824 21.1103 18.8035 21.1012 18.7277H20.2796V18.7275ZM21.0766 18.5161C21.0621 18.3702 21.0453 18.2247 21.0263 18.0803C21.0072 17.936 20.985 17.7871 20.9596 17.6337C20.8962 17.7257 20.8173 17.8446 20.7229 17.9896C20.6286 18.1351 20.5216 18.3104 20.4019 18.5161H21.0766Z" fill="white"/>
<path fill-rule="evenodd" clip-rule="evenodd" d="M22.3809 19.2497C22.263 19.2497 22.1592 19.2326 22.0694 19.1983C21.9796 19.164 21.9048 19.1153 21.845 19.0521C21.7851 18.9892 21.7402 18.9128 21.7103 18.8234C21.6804 18.7341 21.6654 18.6335 21.6654 18.5216C21.6654 18.3592 21.6913 18.204 21.7429 18.0561C21.7946 17.9083 21.8681 17.7775 21.9633 17.6638C22.0585 17.5501 22.1733 17.4594 22.3075 17.3915C22.4417 17.3239 22.5911 17.29 22.7564 17.29C22.8979 17.29 23.0108 17.3045 23.0951 17.3333C23.1795 17.3622 23.2398 17.3893 23.276 17.4146L23.1672 17.6311C23.1253 17.604 23.0688 17.5783 22.9972 17.5539C22.9255 17.5298 22.8407 17.5174 22.7428 17.5174C22.6176 17.5174 22.5052 17.5467 22.4054 17.6056C22.3057 17.6643 22.2213 17.74 22.1524 17.833C22.0835 17.9259 22.0309 18.0306 21.9946 18.147C21.9583 18.2634 21.9402 18.3784 21.9402 18.4921C21.9402 18.844 22.0935 19.0199 22.4 19.0199C22.4653 19.0199 22.5238 19.0152 22.5755 19.0061C22.6272 18.9973 22.673 18.9867 22.7129 18.975C22.7528 18.9633 22.7881 18.9504 22.819 18.9358C22.8498 18.9213 22.877 18.9087 22.9006 18.8979L22.9332 19.1252C22.9115 19.1379 22.8829 19.1514 22.8475 19.1658C22.8122 19.1803 22.7709 19.1938 22.7237 19.2067C22.6766 19.2193 22.624 19.2297 22.5659 19.2378C22.5079 19.2459 22.4462 19.2497 22.3809 19.2497V19.2497Z" fill="white"/>
<path fill-rule="evenodd" clip-rule="evenodd" d="M23.9095 19.2497C23.7916 19.2497 23.6878 19.2326 23.598 19.1983C23.5082 19.164 23.4334 19.1153 23.3735 19.0521C23.3137 18.9892 23.2688 18.9128 23.2389 18.8234C23.2089 18.7341 23.194 18.6335 23.194 18.5216C23.194 18.3592 23.2198 18.204 23.2715 18.0561C23.3232 17.9083 23.3967 17.7775 23.4919 17.6638C23.5871 17.5501 23.7018 17.4594 23.836 17.3915C23.9703 17.3239 24.1197 17.29 24.285 17.29C24.4264 17.29 24.5393 17.3045 24.6237 17.3333C24.708 17.3622 24.7683 17.3893 24.8046 17.4146L24.6958 17.6311C24.6538 17.604 24.5974 17.5783 24.5257 17.5539C24.4541 17.5298 24.3693 17.5174 24.2713 17.5174C24.1462 17.5174 24.0337 17.5467 23.934 17.6056C23.8342 17.6643 23.7499 17.74 23.681 17.833C23.612 17.9259 23.5594 18.0306 23.5232 18.147C23.4869 18.2634 23.4688 18.3784 23.4688 18.4921C23.4688 18.844 23.622 19.0199 23.9285 19.0199C23.9938 19.0199 24.0523 19.0152 24.104 19.0061C24.1557 18.9973 24.2015 18.9867 24.2414 18.975C24.2813 18.9633 24.3167 18.9504 24.3475 18.9358C24.3784 18.9213 24.4056 18.9087 24.4291 18.8979L24.4618 19.1252C24.44 19.1379 24.4115 19.1514 24.3761 19.1658C24.3407 19.1803 24.2995 19.1938 24.2523 19.2067C24.2051 19.2193 24.1525 19.2297 24.0945 19.2378C24.0365 19.2459 23.9748 19.2497 23.9095 19.2497V19.2497Z" fill="white"/>
<path fill-rule="evenodd" clip-rule="evenodd" d="M24.6401 19.2093L25.0917 17.3335H26.2045L26.1528 17.5527H25.3012L25.1652 18.1185H25.9215L25.8698 18.3323H25.1162L24.9557 18.99H25.8698L25.8181 19.2093H24.6401H24.6401Z" fill="white"/>
<path fill-rule="evenodd" clip-rule="evenodd" d="M26.992 17.3145C27.2115 17.3145 27.377 17.356 27.4886 17.439C27.6001 17.522 27.6559 17.6429 27.6559 17.8017C27.6559 17.9244 27.6328 18.0306 27.5865 18.1197C27.5403 18.209 27.4745 18.2826 27.3893 18.3405C27.304 18.3983 27.2015 18.4409 27.0818 18.4689C26.9621 18.4969 26.8288 18.5111 26.6819 18.5111H26.4942L26.3255 19.2094H26.0616L26.5078 17.358C26.584 17.3399 26.6647 17.3282 26.7499 17.3228C26.8352 17.3172 26.9159 17.3145 26.992 17.3145ZM26.9595 17.5365C26.8307 17.5365 26.7527 17.5401 26.7255 17.5473L26.546 18.2917H26.7174C26.7936 18.2917 26.8715 18.2851 26.9514 18.2714C27.0312 18.2578 27.1028 18.2339 27.1663 18.1999C27.2298 18.1656 27.2819 18.1182 27.3227 18.0575C27.3635 17.9971 27.3839 17.9193 27.3839 17.8236C27.3839 17.7208 27.3458 17.6472 27.2697 17.6028C27.1935 17.5586 27.0901 17.5365 26.9595 17.5365V17.5365Z" fill="white"/>
<path fill-rule="evenodd" clip-rule="evenodd" d="M29.2653 17.3335L29.2136 17.5527H28.645L28.2451 19.2093H27.9812L28.3811 17.5527H27.8125L27.8642 17.3335H29.2653V17.3335Z" fill="white"/>
<path fill-rule="evenodd" clip-rule="evenodd" d="M29.0206 19.2093L29.4722 17.3335H30.5849L30.5333 17.5527H29.6817L29.5457 18.1185H30.302L30.2503 18.3323H29.4967L29.3362 18.99H30.2503L30.1986 19.2093H29.0206H29.0206Z" fill="white"/>
<path fill-rule="evenodd" clip-rule="evenodd" d="M31.3685 17.3145C31.6478 17.3145 31.8564 17.3799 31.9942 17.5107C32.1321 17.6415 32.201 17.8179 32.201 18.0399C32.201 18.1951 32.1765 18.3444 32.1275 18.4876C32.0786 18.6313 32.0024 18.7578 31.899 18.8681C31.7956 18.978 31.6637 19.0657 31.5031 19.1307C31.3426 19.1957 31.1508 19.2281 30.9277 19.2281C30.8515 19.2281 30.769 19.2245 30.6801 19.2173C30.5913 19.2101 30.5133 19.1975 30.4462 19.1794L30.8842 17.3578C30.9604 17.3397 31.0411 17.328 31.1263 17.3226C31.2116 17.3172 31.2923 17.3145 31.3685 17.3145ZM31.3467 17.5365C31.2107 17.5365 31.1291 17.5401 31.1019 17.5473L30.7536 18.9927C30.7681 18.9963 30.7926 18.9995 30.8271 19.0022C30.8615 19.0049 30.9178 19.0063 30.9957 19.0063C31.139 19.0063 31.2683 18.9826 31.3834 18.9347C31.4986 18.8869 31.5961 18.8202 31.6759 18.7342C31.7557 18.6485 31.8174 18.5468 31.8609 18.4286C31.9044 18.3104 31.9262 18.1809 31.9262 18.0402C31.9262 17.8814 31.88 17.7578 31.7875 17.6691C31.695 17.5809 31.548 17.5365 31.3467 17.5365V17.5365Z" fill="white"/>
<path fill-rule="evenodd" clip-rule="evenodd" d="M34.2334 19.2093H33.9694L34.1789 18.3377H33.3056L33.0961 19.2093H32.8322L33.2838 17.3335H33.5477L33.3573 18.1185H34.2309L34.4213 17.3335H34.6852L34.2334 19.2093V19.2093Z" fill="white"/>
<path fill-rule="evenodd" clip-rule="evenodd" d="M34.6495 19.2093L35.1011 17.3335H36.2139L36.1619 17.5527H35.3104L35.1743 18.1185H35.9307L35.8788 18.3323H35.1251L34.9648 18.99H35.8788L35.8268 19.2093H34.6495H34.6495Z" fill="white"/>
<path fill-rule="evenodd" clip-rule="evenodd" d="M37.0016 17.3145C37.203 17.3145 37.3626 17.3551 37.4805 17.4363C37.5984 17.5175 37.6571 17.6366 37.6571 17.7933C37.6571 17.9521 37.6106 18.0854 37.5172 18.1928C37.4238 18.3002 37.2927 18.3773 37.1241 18.424C37.1458 18.4621 37.1712 18.5104 37.2002 18.569C37.2293 18.6277 37.2592 18.6927 37.29 18.7639C37.3206 18.835 37.3508 18.9092 37.3798 18.9857C37.4088 19.0626 37.434 19.1368 37.456 19.209H37.1866C37.1615 19.1404 37.1349 19.0709 37.1077 19.0005C37.0808 18.9302 37.0529 18.8625 37.025 18.7975C36.9966 18.7326 36.9688 18.6717 36.9404 18.6148C36.9125 18.558 36.8865 18.5077 36.8629 18.4646C36.8393 18.4664 36.8157 18.4678 36.7921 18.4687C36.7686 18.4696 36.7452 18.47 36.7214 18.47H36.5119L36.3351 19.209H36.0712L36.5176 17.3575C36.5938 17.3395 36.6742 17.3278 36.7597 17.3223C36.8447 17.3172 36.9255 17.3145 37.0016 17.3145ZM36.969 17.5365C36.8403 17.5365 36.7623 17.5401 36.7348 17.5473L36.5634 18.2567H36.7242C36.7986 18.2567 36.8747 18.2513 36.9527 18.2405C37.0307 18.2296 37.1019 18.2084 37.1661 18.1768C37.2305 18.1453 37.2831 18.1011 37.3239 18.0442C37.3647 17.9874 37.3853 17.912 37.3853 17.8182C37.3853 17.7171 37.3468 17.645 37.2697 17.6017C37.1926 17.5581 37.0922 17.5365 36.969 17.5365Z" fill="white"/>
<path fill-rule="evenodd" clip-rule="evenodd" d="M37.6772 19.2093L38.1289 17.3335H39.2416L39.1897 17.5527H38.3381L38.2021 18.1185H38.9584L38.9065 18.3323H38.1529L37.9926 18.99H38.9065L38.8546 19.2093H37.6772H37.6772Z" fill="white"/>
</g>
<path fill-rule="evenodd" clip-rule="evenodd" d="M9.19325 15.9578C11.1864 15.9578 12.8022 14.3503 12.8022 12.3673C12.8022 10.3844 11.1864 8.77686 9.19325 8.77686C7.20011 8.77686 5.58435 10.3844 5.58435 12.3673C5.58435 14.3503 7.20011 15.9578 9.19325 15.9578ZM9.99039 10.9492C10.4904 11.1207 10.8562 11.3775 10.7844 11.8555C10.7323 12.2055 10.5373 12.3747 10.2783 12.434C10.6337 12.6181 10.8147 12.9003 10.6423 13.3899C10.4286 13.9978 9.92066 14.049 9.24509 13.9219L9.08105 14.5754L8.68505 14.4771L8.84684 13.8323C8.74417 13.807 8.63925 13.7798 8.53117 13.7508L8.3687 14.3987L7.97316 14.3004L8.13697 13.6456C8.10211 13.6367 8.06699 13.6275 8.03161 13.6183L8.03148 13.6183C7.97325 13.6032 7.91432 13.5878 7.85469 13.5731L7.33933 13.4453L7.53609 12.9941C7.53609 12.9941 7.82807 13.0711 7.82401 13.0655C7.93615 13.0931 7.98602 13.0204 8.00565 12.9721L8.26468 11.9385L8.27045 11.94C8.28303 11.943 8.2951 11.946 8.30665 11.9491C8.29063 11.9424 8.27642 11.9385 8.26536 11.9358L8.45016 11.1984C8.45512 11.1147 8.42602 11.0092 8.26559 10.9692C8.27168 10.9649 7.97789 10.898 7.97789 10.898L8.08327 10.4771L8.62954 10.6127L8.62909 10.6147C8.71123 10.6352 8.79584 10.6545 8.88204 10.674L9.0445 10.0266L9.44027 10.1249L9.2812 10.7595C9.3877 10.7835 9.49465 10.808 9.59867 10.8338L9.75662 10.2032L10.1526 10.3016L9.99039 10.9492ZM9.8794 13.1183C9.76697 13.5674 9.06034 13.3815 8.73725 13.2965L8.73723 13.2964C8.70826 13.2888 8.68237 13.282 8.66027 13.2765L8.87778 12.4091C8.90477 12.4158 8.93774 12.4232 8.97509 12.4315C9.30937 12.5061 9.99448 12.6591 9.8794 13.1183ZM9.043 12.0293C9.31275 12.1007 9.89973 12.2561 10.002 11.8486C10.1064 11.4316 9.53614 11.3056 9.25692 11.244C9.22528 11.237 9.19738 11.2308 9.17462 11.2252L8.97741 12.0122C8.99619 12.0169 9.01826 12.0227 9.043 12.0293Z" fill="white"/>
</g>
<defs>
<clipPath id="clip0_104_4730">
<rect width="44" height="26.4" fill="white" transform="translate(0.733093 0.407227)"/>
</clipPath>
<clipPath id="clip1_104_4730">
<rect width="27.28" height="7.48" fill="white" transform="translate(12.9319 8.65869)"/>
</clipPath>
<clipPath id="clip2_104_4730">
<rect width="19.8" height="2.2" fill="white" transform="translate(19.4417 17.1895)"/>
</clipPath>
</defs>
</svg>
