<svg width="45" height="27" viewBox="0 0 45 27" fill="none" xmlns="http://www.w3.org/2000/svg">
<g clip-path="url(#clip0_104_4619)">
<rect x="0.733093" y="0.407227" width="44" height="26.4" rx="4" fill="#0069AA"/>
<path fill-rule="evenodd" clip-rule="evenodd" d="M9.33424 16.2396C9.33424 15.7086 9.05682 15.7436 8.79144 15.738V15.5845C9.02155 15.5957 9.25749 15.5957 9.48821 15.5957C9.73607 15.5957 10.0726 15.5845 10.5098 15.5845C12.0388 15.5845 12.8717 16.6055 12.8717 17.651C12.8717 18.2362 12.5292 19.7061 10.4388 19.7061C10.1379 19.7061 9.86 19.6944 9.58258 19.6944C9.31709 19.6944 9.05682 19.6999 8.79144 19.7061V19.5525C9.14536 19.5167 9.31709 19.5052 9.33424 19.1037V16.2396ZM9.91286 19.0089C9.91286 19.4638 10.2379 19.5167 10.5272 19.5167C11.803 19.5167 12.2216 18.5544 12.2216 17.6747C12.2216 16.5705 11.5131 15.7736 10.3737 15.7736C10.131 15.7736 10.0194 15.7908 9.91286 15.7972V19.0089Z" fill="white"/>
<path fill-rule="evenodd" clip-rule="evenodd" d="M13.0785 19.5524H13.1904C13.3557 19.5524 13.4739 19.5524 13.4739 19.3571V17.7571C13.4739 17.4977 13.3855 17.4618 13.1667 17.3441V17.2498C13.4442 17.1664 13.7751 17.055 13.7985 17.0372C13.8401 17.0135 13.875 17.0072 13.905 17.0072C13.934 17.0072 13.9461 17.0427 13.9461 17.0904V19.3571C13.9461 19.5524 14.0763 19.5524 14.2418 19.5524H14.3418V19.706C14.141 19.706 13.934 19.6944 13.7221 19.6944C13.5095 19.6944 13.2968 19.6998 13.0785 19.706V19.5524ZM13.7102 16.0982C13.5564 16.0982 13.4209 15.9565 13.4209 15.803C13.4209 15.6551 13.5628 15.519 13.7102 15.519C13.8634 15.519 13.9997 15.6435 13.9997 15.803C13.9997 15.9627 13.8694 16.0982 13.7102 16.0982Z" fill="white"/>
<path fill-rule="evenodd" clip-rule="evenodd" d="M14.9029 17.7928C14.9029 17.5747 14.8377 17.5157 14.5607 17.4033V17.2912C14.8141 17.2086 15.056 17.1315 15.3398 17.0073C15.3577 17.0073 15.3748 17.0191 15.3748 17.0663V17.4503C15.7119 17.2086 16.0013 17.0073 16.3975 17.0073C16.8987 17.0073 17.0758 17.3735 17.0758 17.8341V19.3573C17.0758 19.5526 17.206 19.5526 17.3712 19.5526H17.4777V19.7062C17.2704 19.7062 17.064 19.6945 16.8516 19.6945C16.6389 19.6945 16.4262 19.7 16.2136 19.7062V19.5526H16.3202C16.4856 19.5526 16.6032 19.5526 16.6032 19.3573V17.8286C16.6032 17.4916 16.3975 17.3265 16.0605 17.3265C15.8714 17.3265 15.5702 17.4797 15.3748 17.6102V19.3573C15.3748 19.5526 15.5053 19.5526 15.6707 19.5526H15.7768V19.7062C15.5702 19.7062 15.3635 19.6945 15.1505 19.6945C14.9384 19.6945 14.7256 19.7 14.5132 19.7062V19.5526H14.6198C14.7849 19.5526 14.9029 19.5526 14.9029 19.3573V17.7928" fill="white"/>
<path fill-rule="evenodd" clip-rule="evenodd" d="M17.9265 18.0766C17.9144 18.1298 17.9144 18.2182 17.9265 18.4191C17.9613 18.9799 18.3222 19.4402 18.7941 19.4402C19.1193 19.4402 19.3734 19.263 19.5915 19.045L19.6739 19.1277C19.4022 19.4878 19.0658 19.795 18.582 19.795C17.6429 19.795 17.454 18.8851 17.454 18.5075C17.454 17.3501 18.2332 17.0073 18.6461 17.0073C19.1249 17.0073 19.639 17.3085 19.6445 17.9346C19.6445 17.9704 19.6445 18.0055 19.639 18.041L19.5856 18.0766H17.9265ZM18.9721 17.8875C19.1194 17.8875 19.1367 17.8106 19.1367 17.7395C19.1367 17.4388 18.9537 17.1967 18.6229 17.1967C18.2631 17.1967 18.0149 17.4619 17.9442 17.8875H18.9721Z" fill="white"/>
<path fill-rule="evenodd" clip-rule="evenodd" d="M19.7807 19.5526H19.9403C20.1049 19.5526 20.2232 19.5526 20.2232 19.3573V17.6984C20.2232 17.5157 20.0048 17.4797 19.9162 17.4325V17.3442C20.3472 17.1611 20.5835 17.0073 20.6375 17.0073C20.6721 17.0073 20.6898 17.0251 20.6898 17.0844V17.6159H20.7022C20.8494 17.3857 21.0979 17.0073 21.4579 17.0073C21.6054 17.0073 21.7941 17.1077 21.7941 17.3204C21.7941 17.4797 21.6825 17.6221 21.5172 17.6221C21.3336 17.6221 21.3336 17.4797 21.1267 17.4797C21.0265 17.4797 20.6958 17.6159 20.6958 17.9704V19.3573C20.6958 19.5526 20.8137 19.5526 20.9792 19.5526H21.3095V19.7062C20.9847 19.7 20.7376 19.6945 20.4834 19.6945C20.2413 19.6945 19.9932 19.7 19.7807 19.7062V19.5526" fill="white"/>
<path fill-rule="evenodd" clip-rule="evenodd" d="M22.0537 18.885C22.1307 19.2747 22.3664 19.6059 22.7982 19.6059C23.1461 19.6059 23.2758 19.393 23.2758 19.1865C23.2758 18.4894 21.989 18.714 21.989 17.7634C21.989 17.4324 22.2548 17.0073 22.9044 17.0073C23.0931 17.0073 23.3469 17.0608 23.577 17.1791L23.6185 17.7808H23.4827C23.4237 17.409 23.2173 17.1966 22.839 17.1966C22.6028 17.1966 22.3787 17.3322 22.3787 17.5861C22.3787 18.2774 23.7482 18.0645 23.7482 18.9916C23.7482 19.381 23.4357 19.7949 22.7327 19.7949C22.4967 19.7949 22.2187 19.712 22.0127 19.594L21.9474 18.9148L22.0537 18.885" fill="white"/>
<path fill-rule="evenodd" clip-rule="evenodd" d="M29.0803 16.6531H28.933C28.8206 15.9629 28.3305 15.685 27.6696 15.685C26.9898 15.685 26.004 16.1393 26.004 17.5565C26.004 18.7497 26.8546 19.606 27.7637 19.606C28.3478 19.606 28.833 19.2043 28.9509 18.5839L29.0867 18.6192L28.9509 19.4816C28.7029 19.6353 28.0354 19.795 27.6453 19.795C26.2642 19.795 25.3903 18.9032 25.3903 17.5747C25.3903 16.3639 26.4709 15.4956 27.6283 15.4956C28.1064 15.4956 28.5668 15.6496 29.0215 15.8091L29.0803 16.6531" fill="white"/>
<path fill-rule="evenodd" clip-rule="evenodd" d="M29.2935 19.5525H29.4052C29.5711 19.5525 29.689 19.5525 29.689 19.3572V16.069C29.689 15.6848 29.6006 15.6732 29.3759 15.6081V15.5135C29.612 15.4368 29.8602 15.3308 29.9845 15.2594C30.0486 15.2245 30.0963 15.1943 30.1137 15.1943C30.1498 15.1943 30.1615 15.2302 30.1615 15.2776V19.3572C30.1615 19.5525 30.2915 19.5525 30.4566 19.5525H30.5566V19.7061C30.3564 19.7061 30.1498 19.6944 29.9371 19.6944C29.7246 19.6944 29.5123 19.6999 29.2935 19.7061V19.5525" fill="white"/>
<path fill-rule="evenodd" clip-rule="evenodd" d="M33.0847 19.381C33.0847 19.4876 33.1493 19.4932 33.2494 19.4932C33.3206 19.4932 33.4088 19.4876 33.4862 19.4876V19.6119C33.2321 19.6353 32.7477 19.7593 32.6353 19.7948L32.6059 19.7768V19.2985C32.252 19.5877 31.98 19.7948 31.5602 19.7948C31.2414 19.7948 30.911 19.5877 30.911 19.0923V17.5802C30.911 17.4265 30.8875 17.2789 30.5573 17.2498V17.1373C30.77 17.1315 31.2414 17.0962 31.3184 17.0962C31.384 17.0962 31.384 17.1373 31.384 17.2674V18.7907C31.384 18.9681 31.384 19.4753 31.8976 19.4753C32.098 19.4753 32.3637 19.3222 32.6116 19.1158V17.527C32.6116 17.409 32.3283 17.3441 32.1161 17.2853V17.1791C32.647 17.1431 32.978 17.0962 33.037 17.0962C33.0847 17.0962 33.0847 17.1373 33.0847 17.2025V19.381" fill="white"/>
<path fill-rule="evenodd" clip-rule="evenodd" d="M34.2595 17.4324C34.4956 17.2321 34.8146 17.0072 35.1393 17.0072C35.8244 17.0072 36.2378 17.6042 36.2378 18.2477C36.2378 19.021 35.6707 19.7949 34.8259 19.7949C34.3894 19.7949 34.159 19.6527 34.0052 19.5878L33.8286 19.7236L33.7048 19.6589C33.7576 19.3106 33.7874 18.9681 33.7874 18.6077V16.069C33.7874 15.6848 33.6985 15.6732 33.4741 15.6081V15.5135C33.7105 15.4368 33.9582 15.3308 34.0822 15.2594C34.1474 15.2245 34.1944 15.1943 34.2124 15.1943C34.2476 15.1943 34.2595 15.2303 34.2595 15.2776V17.4324ZM34.2594 19.0386C34.2594 19.2629 34.4721 19.6411 34.8677 19.6411C35.4994 19.6411 35.765 19.021 35.765 18.4952C35.765 17.8577 35.2813 17.3263 34.8208 17.3263C34.6014 17.3263 34.4188 17.4683 34.2594 17.6042V19.0386Z" fill="white"/>
<path fill-rule="evenodd" clip-rule="evenodd" d="M8.78485 23.1394H8.82997C8.94551 23.1394 9.06762 23.1236 9.06762 22.9564V21.2731C9.06762 21.1057 8.94551 21.0897 8.82997 21.0897H8.78485V20.9932C8.91012 20.9932 9.10289 21.0059 9.26075 21.0059C9.42129 21.0059 9.61382 20.9932 9.76487 20.9932V21.0897H9.71951C9.60445 21.0897 9.4821 21.1057 9.4821 21.2731V22.9564C9.4821 23.1236 9.60445 23.1394 9.71951 23.1394H9.76487V23.236C9.61078 23.236 9.41752 23.2236 9.25747 23.2236C9.09973 23.2236 8.91012 23.236 8.78485 23.236V23.1394" fill="white"/>
<path fill-rule="evenodd" clip-rule="evenodd" d="M9.76482 23.25C9.60939 23.25 9.41711 23.2371 9.25717 23.2371C9.09992 23.2371 8.91092 23.25 8.7848 23.25H8.77081V23.1259H8.82968C8.94631 23.1231 9.05237 23.1137 9.05334 22.9567V21.2734C9.05237 21.1162 8.94631 21.106 8.82968 21.1039H8.77081V20.9795H8.7848C8.91092 20.9795 9.10357 20.992 9.2607 20.992C9.42051 20.992 9.61292 20.9795 9.76482 20.9795H9.77917V21.1039H9.72006C9.60331 21.106 9.49665 21.1162 9.49604 21.2734V22.9567C9.49665 23.1137 9.60331 23.1231 9.72006 23.1259H9.77917V23.25H9.76482ZM9.75089 23.2225L9.75101 23.1542H9.72C9.60507 23.1542 9.46849 23.134 9.46776 22.9567V21.2734C9.46849 21.0958 9.60507 21.0759 9.72 21.0759H9.75089V21.0073C9.60264 21.0075 9.41644 21.0203 9.26064 21.0203C9.10801 21.0203 8.92326 21.0083 8.79885 21.0073V21.0759H8.82962C8.94418 21.0759 9.08101 21.0958 9.08101 21.2734V22.9567C9.08101 23.134 8.94418 23.1542 8.82962 23.1542H8.79885V23.2225C8.92326 23.2214 9.10472 23.2096 9.25711 23.2096C9.41364 23.2096 9.59935 23.2217 9.75089 23.2225Z" fill="white"/>
<path fill-rule="evenodd" clip-rule="evenodd" d="M11.9722 22.6027L11.9787 22.5964V21.3918C11.9787 21.1282 11.7953 21.0896 11.6989 21.0896H11.6281V20.9932C11.7794 20.9932 11.9272 21.0059 12.078 21.0059C12.2097 21.0059 12.3421 20.9932 12.4733 20.9932V21.0896H12.4255C12.2901 21.0896 12.1391 21.1153 12.1391 21.4976V22.9595C12.1391 23.0721 12.1422 23.1845 12.158 23.2843H12.0359L10.3815 21.4396V22.7637C10.3815 23.0434 10.4359 23.1394 10.6833 23.1394H10.738V23.236C10.5998 23.236 10.4618 23.2234 10.3236 23.2234C10.1794 23.2234 10.0314 23.236 9.88666 23.236V23.1394H9.93178C10.1534 23.1394 10.2209 22.9884 10.2209 22.7321V21.3783C10.2209 21.1986 10.0726 21.0896 9.92862 21.0896H9.88666V20.9932C10.0085 20.9932 10.134 21.0059 10.2559 21.0059C10.3526 21.0059 10.4457 20.9932 10.5421 20.9932L11.9722 22.6027" fill="white"/>
<path fill-rule="evenodd" clip-rule="evenodd" d="M12.1579 23.2981L12.0256 23.2936L10.395 21.4762V22.764C10.3989 23.0434 10.4414 23.1228 10.6833 23.1259H10.7521V23.25H10.7379C10.5989 23.25 10.4606 23.2371 10.3235 23.2371C10.1796 23.2371 10.032 23.25 9.88642 23.25H9.87231V23.1259H9.93167C10.144 23.1246 10.2047 22.9882 10.207 22.7323V21.3791C10.2064 21.208 10.0661 21.1039 9.92862 21.1039H9.87231V20.9795H9.88642C10.0093 20.9795 10.135 20.992 10.2555 20.992C10.3514 20.992 10.4442 20.9795 10.5525 20.9845L11.9646 22.5739V21.3922C11.963 21.137 11.7925 21.106 11.6989 21.1039H11.6139V20.9795H11.6282C11.7799 20.9795 11.9278 20.992 12.0779 20.992C12.2086 20.992 12.3404 20.9795 12.4732 20.9795H12.4873V21.1039H12.4254C12.2927 21.1073 12.1566 21.119 12.1527 21.498V22.9598C12.1527 23.0723 12.1562 23.1845 12.1717 23.282L12.1746 23.2981H12.1579ZM12.036 23.2701H12.1422C12.1279 23.1734 12.1253 23.0667 12.1253 22.9598V21.498C12.1253 21.1123 12.287 21.0759 12.4254 21.0757H12.4592V21.0073C12.3326 21.0083 12.2057 21.02 12.0779 21.02C11.9307 21.02 11.7877 21.0083 11.6425 21.0073L11.6421 21.0757H11.6989C11.7977 21.0759 11.9924 21.1198 11.9924 21.3921L11.9882 22.6068L11.9818 22.613L11.9709 22.6233L10.542 21.0073C10.4465 21.0073 10.3536 21.02 10.2555 21.02C10.1378 21.02 10.0172 21.0083 9.90066 21.0073L9.90005 21.0757H9.92863C10.0793 21.0759 10.2344 21.191 10.2344 21.3791V22.7323C10.2344 22.9894 10.1627 23.1536 9.93167 23.1544L9.90066 23.1536V23.2225C10.0398 23.2214 10.1832 23.2096 10.3235 23.2096C10.4576 23.2096 10.5913 23.2214 10.7239 23.2225V23.1544H10.6833C10.4304 23.1536 10.3678 23.0434 10.3676 22.764V21.4039L12.036 23.2701ZM11.9722 22.603L11.9823 22.5938L11.9722 22.603ZM11.9645 22.5967V22.5954L11.962 22.5934L11.9645 22.5967Z" fill="white"/>
<path fill-rule="evenodd" clip-rule="evenodd" d="M12.9547 21.1538C12.7134 21.1538 12.7041 21.212 12.6559 21.4462H12.5594C12.5721 21.3562 12.588 21.2663 12.598 21.1732C12.6109 21.0828 12.6173 20.9932 12.6173 20.9002H12.6943C12.7202 20.9967 12.8005 20.9932 12.8877 20.9932H14.5449C14.6321 20.9932 14.7123 20.99 14.7188 20.8936L14.7956 20.9067C14.7832 20.9932 14.77 21.08 14.7607 21.167C14.7543 21.2537 14.7543 21.3401 14.7543 21.4269L14.6578 21.4626C14.6512 21.3439 14.6353 21.1538 14.42 21.1538H13.893V22.8632C13.893 23.1111 14.0056 23.1394 14.1596 23.1394H14.2209V23.236C14.0955 23.236 13.8705 23.2236 13.6973 23.2236C13.5043 23.2236 13.2792 23.236 13.1538 23.236V23.1394H13.2151C13.3922 23.1394 13.4817 23.1236 13.4817 22.8699V21.1538H12.9547" fill="white"/>
<path fill-rule="evenodd" clip-rule="evenodd" d="M14.221 23.2499C14.0944 23.2499 13.8697 23.2371 13.6972 23.2371C13.5044 23.2371 13.2797 23.2499 13.1537 23.2499H13.1399V23.1257H13.215C13.3921 23.1216 13.4632 23.1193 13.4672 22.8701V21.1677H12.9546V21.1397H13.4951V22.8701C13.4951 23.128 13.3911 23.1541 13.215 23.1543H13.1674V23.2222C13.2942 23.2213 13.5106 23.2095 13.6972 23.2095C13.8644 23.2095 14.0791 23.2213 14.2064 23.2222V23.1543H14.1595C14.0041 23.1541 13.879 23.1159 13.879 22.8634V21.1397H14.4199C14.6354 21.1405 14.664 21.3237 14.6707 21.4432L14.7402 21.4176C14.7402 21.3336 14.7406 21.2496 14.7463 21.1652C14.7558 21.0821 14.7675 21.0005 14.7795 20.9182L14.7307 20.91C14.7158 21.0036 14.6252 21.0085 14.5447 21.0073H12.8708C12.7952 21.0075 12.7128 21.0038 12.6839 20.9142H12.6308C12.6304 21.003 12.6243 21.0892 12.6121 21.1748C12.6025 21.2631 12.5878 21.3479 12.5761 21.433H12.6447C12.6869 21.2089 12.7144 21.1365 12.9546 21.1397V21.1677C12.7166 21.1725 12.7218 21.2123 12.6694 21.4497L12.6671 21.4606H12.5433L12.545 21.444C12.5581 21.3543 12.5744 21.2641 12.5838 21.1708C12.5972 21.0816 12.6032 20.9925 12.6032 20.9004V20.8862H12.7053L12.7077 20.8963C12.7294 20.9773 12.7888 20.9779 12.8708 20.9794H14.5447C14.6342 20.9779 14.6994 20.9767 14.7048 20.8926L14.7059 20.8774L14.7205 20.8804L14.8114 20.8947L14.8091 20.9089C14.7963 20.9952 14.7838 21.0816 14.774 21.1677C14.7681 21.2539 14.7681 21.3402 14.7681 21.427V21.4368L14.7587 21.4405L14.645 21.4821L14.6443 21.4635C14.6354 21.3426 14.623 21.1677 14.4199 21.1677H13.907V22.8634C13.9102 23.1057 14.0062 23.1227 14.1595 23.1257H14.2347V23.2499H14.221" fill="white"/>
<path fill-rule="evenodd" clip-rule="evenodd" d="M14.8982 23.1394H14.9434C15.0587 23.1394 15.1812 23.1236 15.1812 22.9564V21.2731C15.1812 21.1057 15.0587 21.0897 14.9434 21.0897H14.8982V20.9932C15.0935 20.9932 15.4285 21.0059 15.6978 21.0059C15.9682 21.0059 16.3019 20.9932 16.5204 20.9932C16.5148 21.1313 16.5178 21.3439 16.5273 21.485L16.4305 21.5105C16.415 21.3016 16.3765 21.135 16.039 21.135H15.5929V21.9762H15.9745C16.1673 21.9762 16.2093 21.8674 16.2284 21.6937H16.3247C16.3182 21.8192 16.3148 21.9445 16.3148 22.0696C16.3148 22.192 16.3182 22.314 16.3247 22.4358L16.2284 22.455C16.2093 22.2625 16.1997 22.1372 15.9777 22.1372H15.5929V22.8855C15.5929 23.0946 15.7785 23.0946 15.9843 23.0946C16.3699 23.0946 16.5401 23.0687 16.6365 22.7029L16.7262 22.725C16.6844 22.8957 16.6461 23.0655 16.6173 23.236C16.4114 23.236 16.0419 23.2236 15.7533 23.2236C15.4635 23.2236 15.0815 23.236 14.8982 23.236V23.1394" fill="white"/>
<path fill-rule="evenodd" clip-rule="evenodd" d="M16.6171 23.25C16.411 23.25 16.0413 23.2366 15.753 23.2366C15.4636 23.2366 15.0817 23.25 14.8981 23.25H14.8846V23.1259H14.9434C15.0597 23.1239 15.1655 23.1137 15.1669 22.9567V21.2734C15.1655 21.1164 15.0597 21.106 14.9434 21.1039H14.8846V20.9795H14.8981C15.0944 20.9795 15.4287 20.992 15.6979 20.992C15.968 20.992 16.3016 20.9795 16.5204 20.9795H16.5347L16.5342 20.9943C16.5321 21.0424 16.5308 21.0995 16.5308 21.16C16.5308 21.271 16.5342 21.3928 16.5405 21.4842L16.5411 21.4956L16.5303 21.4989L16.4173 21.5285L16.4168 21.5119C16.3978 21.3035 16.3699 21.1518 16.0391 21.1487H15.606L15.6057 21.9624H15.9745C16.1597 21.9605 16.1928 21.8659 16.2147 21.6926L16.2154 21.6797H16.339L16.3387 21.6944C16.3325 21.8199 16.3288 21.9448 16.3288 22.0699C16.3288 22.1914 16.3325 22.3134 16.3387 22.4355L16.339 22.4472L16.3273 22.4499L16.2154 22.4721L16.2147 22.4571C16.1924 22.2609 16.191 22.1534 15.9778 22.1511H15.606V22.8858C15.6065 23.0811 15.7748 23.08 15.9842 23.0811C16.3711 23.0788 16.526 23.0598 16.6228 22.6994L16.6261 22.6864L16.6396 22.6886L16.7426 22.7154L16.7397 22.7286C16.698 22.8987 16.6597 23.0686 16.6306 23.2386L16.6282 23.25H16.6171ZM16.6053 23.2223C16.6333 23.0598 16.67 22.8976 16.7094 22.7358L16.6461 22.7199C16.5499 23.0793 16.3635 23.1114 15.9843 23.1089C15.7818 23.1089 15.5794 23.1089 15.5783 22.8858V22.1236H15.9778C16.2022 22.1213 16.2248 22.2565 16.2409 22.4393L16.3102 22.4251C16.304 22.3066 16.3008 22.1877 16.3008 22.0699C16.3008 21.9493 16.304 21.8289 16.3102 21.7076H16.2409C16.2228 21.8755 16.1703 21.9926 15.9745 21.9905H15.5783V21.1208H16.0391C16.3732 21.1181 16.4285 21.2911 16.4431 21.4932L16.5123 21.4744C16.5067 21.3837 16.503 21.2672 16.503 21.16C16.503 21.105 16.5044 21.0528 16.5063 21.0073C16.2879 21.0083 15.9621 21.02 15.698 21.02C15.4339 21.02 15.109 21.0083 14.9123 21.0073V21.0757H14.9434C15.0578 21.0759 15.1945 21.0958 15.1952 21.2734V22.9567C15.1945 23.134 15.0578 23.1536 14.9434 23.1544H14.9123V23.2223C15.0993 23.2217 15.4708 23.2096 15.7531 23.2096C16.0367 23.2096 16.3981 23.2217 16.6053 23.2223Z" fill="white"/>
<path fill-rule="evenodd" clip-rule="evenodd" d="M17.1601 21.3335C17.1601 21.0992 17.0315 21.0896 16.9317 21.0896H16.8737V20.9932C16.9766 20.9932 17.1758 21.0059 17.372 21.0059C17.5644 21.0059 17.7189 20.9932 17.8891 20.9932C18.2934 20.9932 18.654 21.1023 18.654 21.5588C18.654 21.8478 18.4611 22.0243 18.2074 22.1245L18.7565 22.9465C18.8468 23.0825 18.9105 23.1206 19.0684 23.1394V23.236C18.9621 23.236 18.8593 23.2236 18.7536 23.2236C18.654 23.2236 18.5507 23.236 18.4516 23.236C18.204 22.9116 17.9918 22.5647 17.7831 22.1947H17.5713V22.8827C17.5713 23.13 17.6868 23.1394 17.834 23.1394H17.8923V23.236C17.7088 23.236 17.5232 23.2236 17.3396 23.2236C17.1854 23.2236 17.0344 23.236 16.8737 23.236V23.1394H16.9317C17.051 23.1394 17.1601 23.085 17.1601 22.9663V21.3335ZM17.5713 22.0788H17.7283C18.05 22.0788 18.2232 21.957 18.2232 21.5777C18.2232 21.292 18.04 21.1088 17.7537 21.1088C17.6573 21.1088 17.6162 21.1187 17.5713 21.1219V22.0788Z" fill="white"/>
<path fill-rule="evenodd" clip-rule="evenodd" d="M19.0683 23.25C18.9606 23.25 18.8584 23.2371 18.7527 23.2371C18.6548 23.2371 18.552 23.25 18.4401 23.2447C18.1936 22.9212 17.9824 22.5762 17.7749 22.2094H17.585V22.8824C17.5886 23.1243 17.6855 23.1224 17.834 23.1259H17.9061V23.25H17.8919C17.7082 23.25 17.5215 23.2371 17.3395 23.2371C17.186 23.2371 17.0351 23.25 16.8737 23.25H16.8597V23.1259H16.9317C17.0472 23.125 17.1449 23.0746 17.1454 22.9666V21.3338C17.1429 21.106 17.0314 21.1071 16.9317 21.1039H16.8597V20.9795H16.8737C16.9777 20.9795 17.176 20.992 17.3719 20.992C17.5637 20.992 17.7178 20.9795 17.8891 20.9795C18.2942 20.9803 18.667 21.0919 18.6679 21.5586C18.6679 21.8486 18.4763 22.0298 18.2285 22.1309L18.768 22.9392C18.8579 23.0725 18.9139 23.1058 19.0701 23.1259L19.0818 23.1277V23.25H19.0683ZM17.5712 22.1811H17.7907L17.7947 22.1883C18.0039 22.5574 18.215 22.9044 18.4516 23.2225C18.5494 23.2225 18.6526 23.2096 18.7527 23.2096C18.8552 23.2096 18.9545 23.2208 19.0542 23.2223V23.1517C18.9036 23.1334 18.8329 23.0879 18.7452 22.9547L18.1858 22.1183L18.2016 22.1119C18.4533 22.0128 18.6397 21.8412 18.6398 21.5586C18.6397 21.1129 18.293 21.0095 17.8891 21.0073C17.7199 21.0073 17.5654 21.0203 17.372 21.0203C17.1832 21.0203 16.9925 21.0083 16.8874 21.0073V21.0757H16.9317C17.0314 21.0759 17.1733 21.0925 17.1733 21.3338V22.9666C17.1733 23.0956 17.0526 23.1542 16.9317 23.1544H16.8874V23.2223C17.0419 23.2217 17.1885 23.2096 17.3395 23.2096C17.5189 23.2096 17.7003 23.2217 17.878 23.2223V23.1544H17.834C17.6877 23.1542 17.5569 23.1361 17.5569 22.8824V22.1811H17.5712ZM17.5712 22.0929H17.557V21.1091L17.5693 21.1081C17.6133 21.1046 17.6566 21.0957 17.7538 21.0957C18.0464 21.0957 18.237 21.2858 18.2372 21.5788C18.2363 21.9624 18.0525 22.0928 17.7283 22.0929H17.5712ZM17.7283 22.0655C18.0463 22.0624 18.2066 21.9521 18.2098 21.5788C18.2078 21.2981 18.0335 21.124 17.7537 21.1227C17.667 21.1227 17.626 21.1308 17.585 21.1348V22.0655H17.7283Z" fill="white"/>
<path fill-rule="evenodd" clip-rule="evenodd" d="M21.2496 22.6027L21.2552 22.5964V21.3918C21.2552 21.1282 21.0727 21.0896 20.9762 21.0896H20.9058V20.9932C21.0568 20.9932 21.2041 21.0059 21.3555 21.0059C21.4876 21.0059 21.6184 20.9932 21.7511 20.9932V21.0896H21.7026C21.5676 21.0896 21.4167 21.1153 21.4167 21.4976V22.9595C21.4167 23.0721 21.4199 23.1845 21.4357 23.2843H21.3141L19.6595 21.4396V22.7637C19.6595 23.0434 19.7138 23.1394 19.9612 23.1394H20.0159V23.236C19.8779 23.236 19.7394 23.2234 19.6014 23.2234C19.4563 23.2234 19.3088 23.236 19.1643 23.236V23.1394H19.2089C19.4308 23.1394 19.4986 22.9884 19.4986 22.7321V21.3783C19.4986 21.1986 19.3506 21.0896 19.2061 21.0896H19.1643V20.9932C19.2859 20.9932 19.4122 21.0059 19.534 21.0059C19.6295 21.0059 19.7232 20.9932 19.8197 20.9932L21.2496 22.6027" fill="white"/>
<path fill-rule="evenodd" clip-rule="evenodd" d="M21.4356 23.2981L21.3037 23.2936L19.6729 21.4764V22.7639C19.6766 23.0438 19.719 23.1228 19.9612 23.1259H20.0293V23.25H20.0154C19.8765 23.25 19.7385 23.2366 19.6009 23.2366C19.4575 23.2366 19.309 23.25 19.1643 23.25H19.1499V23.1259H19.209C19.4212 23.125 19.482 22.9882 19.4841 22.7316V21.3787C19.4838 21.2074 19.3436 21.1039 19.2062 21.1039H19.1499V20.9795H19.1643C19.287 20.9795 19.4127 20.992 19.534 20.992C19.6284 20.992 19.7214 20.9795 19.8292 20.9836L21.2417 22.5739V21.3922C21.2408 21.137 21.0697 21.1054 20.9763 21.1039H20.8915V20.9795H20.9055C21.0573 20.9795 21.2054 20.992 21.3556 20.992C21.4865 20.992 21.6181 20.9795 21.7505 20.9795H21.7647V21.1039H21.7027C21.5702 21.1071 21.4336 21.119 21.4304 21.498V22.9598C21.4304 23.0723 21.4332 23.1837 21.4496 23.2823L21.4512 23.2981H21.4356ZM21.314 23.2701H21.4193C21.4052 23.174 21.4024 23.0667 21.4024 22.9598V21.498C21.4026 21.1123 21.5651 21.0765 21.7027 21.0757H21.7365V21.0073C21.61 21.0083 21.483 21.02 21.3556 21.02C21.2079 21.02 21.0648 21.0083 20.9194 21.0073V21.0757H20.9762C21.0752 21.0765 21.2698 21.1198 21.2698 21.3921L21.2652 22.6068L21.2593 22.613L21.2493 22.6236L19.8197 21.0073C19.7241 21.0073 19.631 21.02 19.5339 21.02C19.4147 21.02 19.2947 21.0083 19.1779 21.0073V21.0757H19.2062C19.3573 21.0765 19.5119 21.1905 19.5119 21.3786V22.7316C19.5119 22.9894 19.4393 23.1536 19.2089 23.1544L19.1779 23.1542V23.2224C19.3167 23.2214 19.4599 23.2096 19.6008 23.2096C19.7356 23.2096 19.8691 23.2214 20.0019 23.2224V23.1544H19.9612C19.7083 23.1542 19.6453 23.0438 19.6446 22.7639V21.4044L21.314 23.2701ZM21.2493 22.603L21.2598 22.5938L21.2493 22.603ZM21.2417 22.5967V22.5958L21.2394 22.5934L21.2417 22.5967Z" fill="white"/>
<path fill-rule="evenodd" clip-rule="evenodd" d="M22.2676 22.7766C22.2353 22.8854 22.1965 22.9698 22.1965 23.0269C22.1965 23.1235 22.3318 23.1395 22.4375 23.1395H22.4734V23.2359C22.3444 23.229 22.2133 23.2235 22.084 23.2235C21.9683 23.2235 21.8533 23.229 21.7372 23.2359V23.1395H21.7568C21.8819 23.1395 21.9883 23.0654 22.0359 22.9304L22.55 21.4561C22.592 21.3369 22.6499 21.1764 22.6695 21.0572C22.7716 21.0221 22.9007 20.9582 22.9615 20.9192C22.9714 20.9159 22.9774 20.9126 22.9871 20.9126C22.9969 20.9126 23.0028 20.9126 23.0099 20.9227C23.0194 20.9481 23.0287 20.9771 23.0387 21.0027L23.6301 22.6834C23.6687 22.7955 23.7069 22.9144 23.748 23.0113C23.7872 23.1014 23.8547 23.1395 23.9611 23.1395H23.9803V23.2359C23.8356 23.229 23.6906 23.2235 23.5371 23.2235C23.3796 23.2235 23.2185 23.229 23.0546 23.2359V23.1395H23.09C23.1635 23.1395 23.2896 23.1267 23.2896 23.0463C23.2896 23.0048 23.2605 22.918 23.2247 22.8147L23.0995 22.4422H22.3703L22.2676 22.7766ZM22.7367 21.3531H22.73L22.4314 22.2625H23.0317L22.7367 21.3531Z" fill="white"/>
<path fill-rule="evenodd" clip-rule="evenodd" d="M23.9793 23.2498C23.835 23.2436 23.6901 23.2364 23.5371 23.2364C23.3796 23.2364 23.2193 23.2436 23.0554 23.2498L23.0405 23.2505V23.125H23.09C23.1645 23.125 23.2749 23.1083 23.2751 23.0464C23.2759 23.0098 23.2471 22.9218 23.2117 22.8196L23.0893 22.4561H22.3806L22.2807 22.7808C22.2483 22.89 22.2093 22.9749 22.2099 23.0272C22.211 23.1057 22.3309 23.125 22.4375 23.125H22.4869V23.2505L22.4723 23.2498C22.3439 23.2436 22.2128 23.2364 22.0842 23.2364C21.9695 23.2364 21.8534 23.2436 21.7383 23.2498L21.7234 23.2505V23.125H21.7567C21.8761 23.1248 21.9759 23.0565 22.0223 22.926L22.5369 21.4513C22.5784 21.3323 22.6368 21.1725 22.6645 21.0441C22.7653 21.0099 22.8946 20.9451 22.9563 20.9063C22.9653 20.9031 22.9741 20.899 22.987 20.899C22.9949 20.8985 23.0122 20.9006 23.0227 20.9174C23.0318 20.9437 23.042 20.9726 23.0517 20.9985L23.6433 22.6789C23.6811 22.7914 23.7195 22.9101 23.7616 23.0053C23.7988 23.091 23.8578 23.1248 23.9611 23.125H23.9936V23.2505L23.9793 23.2498ZM23.0687 23.2212C23.2277 23.2156 23.3837 23.2094 23.5372 23.2094C23.6862 23.2094 23.8263 23.2156 23.9659 23.2212V23.1539H23.9612C23.851 23.1547 23.7752 23.1114 23.7358 23.0166C23.694 22.9196 23.6549 22.8003 23.617 22.6878L23.0254 21.0072C23.0157 20.9815 23.0066 20.9528 22.9982 20.93C22.995 20.9268 22.9957 20.9268 22.9932 20.9268H22.9871C22.9807 20.9268 22.9768 20.9288 22.9685 20.9308C22.9067 20.971 22.7779 21.0343 22.6823 21.0594C22.6627 21.1811 22.6048 21.3417 22.5631 21.4607L22.049 22.9351C22.0002 23.0748 21.8872 23.1542 21.7568 23.1539H21.7514V23.2212C21.8616 23.2156 21.9728 23.2094 22.0843 23.2094C22.2086 23.2094 22.3353 23.2156 22.4583 23.2212V23.1539H22.4376C22.3327 23.1525 22.1865 23.141 22.1828 23.0272C22.1831 22.9635 22.2225 22.8813 22.254 22.7726L22.2676 22.7767L22.254 22.7723L22.3598 22.4289H23.109L23.2376 22.8105C23.2738 22.9139 23.3029 22.9995 23.3029 23.0464C23.2982 23.1448 23.163 23.1521 23.0901 23.1539H23.0687V23.2212ZM22.4118 22.2765L22.7194 21.339H22.7367V21.3532L22.7333 21.3542L22.7367 21.3532V21.339H22.7463L23.0517 22.2765H22.4118ZM22.4503 22.2484H23.0128L22.7332 21.3874L22.4503 22.2484ZM22.7227 21.3574L22.7302 21.3551L22.7227 21.3574Z" fill="white"/>
<path fill-rule="evenodd" clip-rule="evenodd" d="M24.1215 21.1538C23.8806 21.1538 23.8709 21.212 23.8225 21.4462H23.7259C23.7385 21.3562 23.755 21.2663 23.7649 21.1732C23.7775 21.0828 23.7837 20.9932 23.7837 20.9002H23.8614C23.8866 20.9967 23.9671 20.9932 24.0538 20.9932H25.712C25.7983 20.9932 25.8786 20.99 25.8849 20.8936L25.9618 20.9067C25.9498 20.9932 25.9371 21.08 25.927 21.167C25.9199 21.2537 25.9199 21.3401 25.9199 21.4269L25.824 21.4626C25.8183 21.3439 25.8021 21.1538 25.5863 21.1538H25.0595V22.8632C25.0595 23.1111 25.1721 23.1394 25.3261 23.1394H25.3875V23.236C25.262 23.236 25.0374 23.2236 24.8635 23.2236C24.6711 23.2236 24.4456 23.236 24.3204 23.236V23.1394H24.3815C24.5586 23.1394 24.6483 23.1236 24.6483 22.8699V21.1538H24.1215" fill="white"/>
<path fill-rule="evenodd" clip-rule="evenodd" d="M25.3875 23.2499C25.2612 23.2499 25.036 23.2371 24.8633 23.2371C24.6714 23.2371 24.4464 23.2499 24.3205 23.2499H24.3063V23.1257H24.3815C24.5588 23.1216 24.6298 23.1193 24.634 22.8701L24.6338 21.1677H24.1215V21.1397H24.6621V22.8701C24.6621 23.128 24.558 23.1535 24.3815 23.1541H24.3342V23.2224C24.4612 23.2213 24.6771 23.2095 24.8633 23.2095C25.0312 23.2095 25.2463 23.2213 25.3731 23.2224V23.1541H25.3259C25.1711 23.1535 25.046 23.1162 25.0457 22.8634V21.1397H25.5863C25.8022 21.1405 25.8303 21.3237 25.8365 21.4432L25.9063 21.4176C25.9063 21.3336 25.9068 21.2496 25.9134 21.1656C25.922 21.0827 25.9342 21.0005 25.9458 20.9185L25.8973 20.91C25.8826 21.0036 25.7919 21.0088 25.712 21.0073H24.0374C23.9616 21.0082 23.8796 21.0038 23.8504 20.9139H23.7979C23.7972 21.0028 23.7908 21.0892 23.7782 21.1748C23.7694 21.2635 23.754 21.3485 23.7417 21.433H23.8108C23.853 21.2089 23.8808 21.1361 24.1215 21.1397V21.1677C23.8833 21.1719 23.8885 21.2123 23.8361 21.4497L23.8338 21.4606H23.7097L23.7117 21.4447C23.7252 21.3543 23.741 21.2641 23.7503 21.1715C23.7635 21.0816 23.7694 20.9925 23.7694 20.9004V20.8862H23.8715L23.8741 20.8963C23.8966 20.9773 23.9551 20.9779 24.0374 20.9794H25.712C25.8009 20.9779 25.8657 20.9767 25.8714 20.8929L25.8719 20.8774L25.8868 20.8804L25.9781 20.8947L25.9759 20.9089C25.9626 20.9952 25.9505 21.0816 25.9407 21.1677C25.9342 21.2539 25.9342 21.3403 25.9342 21.427V21.4368L25.9248 21.4405L25.8111 21.4821L25.8106 21.4635C25.8022 21.3426 25.7894 21.1677 25.5863 21.1677H25.0733V22.8634C25.0766 23.1057 25.1728 23.1227 25.3259 23.1257H25.4009V23.2499H25.3875" fill="white"/>
<path fill-rule="evenodd" clip-rule="evenodd" d="M26.0807 23.1394H26.1257C26.2415 23.1394 26.3632 23.1236 26.3632 22.9564V21.2731C26.3632 21.1057 26.2415 21.0897 26.1257 21.0897H26.0807V20.9932C26.2061 20.9932 26.3985 21.0059 26.5558 21.0059C26.7168 21.0059 26.9097 20.9932 27.061 20.9932V21.0897H27.0159C26.8997 21.0897 26.7776 21.1057 26.7776 21.2731V22.9564C26.7776 23.1236 26.8997 23.1394 27.0159 23.1394H27.061V23.236C26.9067 23.236 26.7137 23.2236 26.5532 23.2236C26.3955 23.2236 26.2061 23.236 26.0807 23.236V23.1394" fill="white"/>
<path fill-rule="evenodd" clip-rule="evenodd" d="M27.061 23.25C26.9057 23.25 26.7136 23.2366 26.5533 23.2366C26.396 23.2366 26.2063 23.25 26.0808 23.25H26.067V23.1259H26.1259C26.2417 23.1239 26.3484 23.1137 26.3492 22.9567V21.2734C26.3484 21.1164 26.2417 21.106 26.1259 21.1039H26.067V20.9795H26.0808C26.2063 20.9795 26.3995 20.992 26.5558 20.992C26.716 20.992 26.9088 20.9795 27.061 20.9795H27.0744V21.1039H27.016C26.8984 21.106 26.7927 21.1164 26.7916 21.2734V22.9567C26.7927 23.1137 26.8984 23.1239 27.016 23.1259H27.0744V23.25H27.061ZM27.0464 23.2223V23.1542H27.016C26.9007 23.1542 26.7644 23.134 26.7644 22.9567V21.2734C26.7644 21.0958 26.9007 21.0759 27.016 21.0757H27.0464V21.0073C26.8983 21.0083 26.7122 21.02 26.5558 21.02C26.4033 21.02 26.2194 21.0083 26.0948 21.0073V21.0757H26.1259C26.24 21.0759 26.3769 21.0958 26.3773 21.2734V22.9567C26.3769 23.134 26.24 23.1542 26.1259 23.1542H26.0948V23.2223C26.2186 23.2208 26.4003 23.2096 26.5533 23.2096C26.7091 23.2096 26.8949 23.2214 27.0464 23.2223Z" fill="white"/>
<path fill-rule="evenodd" clip-rule="evenodd" d="M28.3421 20.9453C29.027 20.9453 29.573 21.3699 29.573 22.0542C29.573 22.7933 29.0427 23.2846 28.3586 23.2846C27.6772 23.2846 27.1569 22.8218 27.1569 22.1309C27.1569 21.4629 27.674 20.9453 28.3421 20.9453ZM28.3905 23.1431C29.0141 23.1431 29.1228 22.5933 29.1228 22.1248C29.1228 21.6552 28.8696 21.0868 28.3359 21.0868C27.7738 21.0868 27.6066 21.5881 27.6066 22.0183C27.6066 22.5933 27.8703 23.1431 28.3905 23.1431Z" fill="white"/>
<path fill-rule="evenodd" clip-rule="evenodd" d="M27.1426 22.1307C27.1439 21.455 27.667 20.9322 28.342 20.9312V20.9592C27.6815 20.9592 27.1706 21.4698 27.1698 22.1307C27.1712 22.8138 27.6839 23.2697 28.3588 23.2699C29.036 23.2697 29.5586 22.7855 29.5594 22.0536C29.5588 21.3777 29.0215 20.9599 28.342 20.9592V20.9312C29.0318 20.9319 29.5856 21.3606 29.5868 22.0536C29.5861 22.8003 29.0495 23.2967 28.3588 23.2979C27.6715 23.2967 27.1439 22.8293 27.1426 22.1307ZM27.5926 22.018C27.5936 21.5857 27.7623 21.0722 28.336 21.0722C28.8816 21.0734 29.136 21.6525 29.1371 22.1246C29.136 22.5931 29.0258 23.156 28.3908 23.156V23.1288C29.0017 23.1283 29.1079 22.5931 29.1089 22.1246C29.1089 21.6591 28.8582 21.1014 28.336 21.1005C27.7848 21.1011 27.6219 21.5901 27.6205 22.018C27.6207 22.5904 27.882 23.128 28.3908 23.1288V23.156C27.8575 23.1556 27.5936 22.5965 27.5926 22.018Z" fill="white"/>
<path fill-rule="evenodd" clip-rule="evenodd" d="M31.7381 22.6027L31.7448 22.5964V21.3918C31.7448 21.1282 31.5611 21.0896 31.4647 21.0896H31.3948V20.9932C31.5454 20.9932 31.6935 21.0059 31.8441 21.0059C31.9762 21.0059 32.1079 20.9932 32.2397 20.9932V21.0896H32.1914C32.0568 21.0896 31.9051 21.1153 31.9051 21.4976V22.9595C31.9051 23.0721 31.9085 23.1845 31.9248 23.2843H31.8026L30.1476 21.4396V22.7637C30.1476 23.0434 30.2024 23.1394 30.4493 23.1394H30.5044V23.236C30.3661 23.236 30.2282 23.2234 30.0901 23.2234C29.9453 23.2234 29.7974 23.236 29.6528 23.236V23.1394H29.698C29.92 23.1394 29.987 22.9884 29.987 22.7321V21.3783C29.987 21.1986 29.8398 21.0896 29.6944 21.0896H29.6528V20.9932C29.7749 20.9932 29.9001 21.0059 30.0224 21.0059C30.1186 21.0059 30.2113 20.9932 30.3081 20.9932L31.7381 22.6027" fill="white"/>
<path fill-rule="evenodd" clip-rule="evenodd" d="M31.925 23.2981L31.792 23.2936L30.1615 21.4764V22.764C30.1652 23.0438 30.2077 23.1224 30.449 23.1252H30.5182V23.25H30.5046C30.3654 23.25 30.2275 23.2371 30.0901 23.2371C29.9461 23.2371 29.7982 23.25 29.6525 23.25H29.6393V23.1252H29.6978C29.9096 23.1246 29.9706 22.9882 29.9732 22.7323V21.3787C29.9731 21.2074 29.8326 21.1039 29.6946 21.1039H29.6393V20.9795H29.6525C29.7757 20.9795 29.9009 20.992 30.0223 20.992C30.1177 20.992 30.21 20.9795 30.319 20.9845L31.7307 22.5739V21.3922C31.7296 21.137 31.5585 21.106 31.4647 21.1039H31.3801V20.9795H31.3948C31.5457 20.9795 31.694 20.992 31.8437 20.992C31.9752 20.992 32.1063 20.9795 32.2398 20.9795H32.2533V21.1039H32.1913C32.0589 21.1073 31.9222 21.1195 31.9195 21.498V22.9598C31.9195 23.0723 31.922 23.1845 31.9376 23.2823L31.9404 23.2981H31.925ZM31.8026 23.2701H31.908C31.8943 23.1734 31.8912 23.0667 31.8912 22.9598V21.498C31.8912 21.1117 32.0534 21.0765 32.1913 21.0757H32.2261V21.0073C32.0985 21.0083 31.9722 21.02 31.8438 21.02C31.6974 21.02 31.5538 21.0083 31.4084 21.0073V21.0757H31.4648C31.564 21.0765 31.758 21.1204 31.758 21.3921L31.7546 22.6068L31.7484 22.613L31.7382 22.6236L30.3083 21.0073C30.2132 21.0073 30.1197 21.02 30.0224 21.02C29.9039 21.02 29.7833 21.0083 29.6664 21.0073V21.0757H29.6946C29.8457 21.0765 30.0008 21.1905 30.0008 21.3786V22.7323C30.0008 22.9894 29.9291 23.1536 29.6979 23.1544L29.6664 23.1542V23.2224C29.8059 23.2214 29.9489 23.2096 30.0901 23.2096C30.2241 23.2096 30.3573 23.2214 30.4905 23.2224V23.1544H30.449C30.1969 23.1542 30.1336 23.0438 30.1336 22.764V21.4039L31.8026 23.2701ZM31.7382 22.603L31.7484 22.5938L31.7382 22.603ZM31.7307 22.5967V22.5958L31.7282 22.5934L31.7307 22.5967Z" fill="white"/>
<path fill-rule="evenodd" clip-rule="evenodd" d="M32.7559 22.7766C32.7244 22.8854 32.6856 22.9698 32.6856 23.0269C32.6856 23.1235 32.821 23.1395 32.9263 23.1395H32.9622V23.2359C32.8335 23.229 32.7017 23.2235 32.573 23.2235C32.4573 23.2235 32.3418 23.229 32.2266 23.2359V23.1395H32.2449C32.3709 23.1395 32.4773 23.0654 32.5242 22.9304L33.0394 21.4561C33.0809 21.3369 33.139 21.1764 33.1575 21.0572C33.2608 21.0221 33.389 20.9582 33.4509 20.9192C33.4599 20.9159 33.4663 20.9126 33.4763 20.9126C33.4856 20.9126 33.4917 20.9126 33.4983 20.9227C33.508 20.9481 33.5176 20.9771 33.5274 21.0027L34.1186 22.6834C34.1569 22.7955 34.1957 22.9144 34.2376 23.0113C34.2762 23.1014 34.3436 23.1395 34.4495 23.1395H34.4693V23.2359C34.3245 23.229 34.1797 23.2235 34.0254 23.2235C33.8683 23.2235 33.7074 23.229 33.5433 23.2359V23.1395H33.5789C33.6524 23.1395 33.7784 23.1267 33.7784 23.0463C33.7784 23.0048 33.7496 22.918 33.7137 22.8147L33.5884 22.4422H32.8592L32.7559 22.7766ZM33.2258 21.3531H33.2194L32.9198 22.2625H33.5216L33.2258 21.3531Z" fill="white"/>
<path fill-rule="evenodd" clip-rule="evenodd" d="M34.4678 23.2496C34.3229 23.2439 34.1787 23.2367 34.0255 23.2367C33.8687 23.2367 33.7077 23.2439 33.544 23.2496L33.5297 23.2503V23.1254H33.5786C33.6533 23.1254 33.764 23.1082 33.7641 23.0463C33.765 23.0097 33.7359 22.922 33.6998 22.8194L33.5779 22.4559H32.8686L32.7694 22.7806C32.737 22.8907 32.6991 22.9747 32.6994 23.0268C32.6994 23.1055 32.82 23.1254 32.9261 23.1254H32.9753V23.2503L32.9608 23.2496C32.8325 23.2439 32.7009 23.2367 32.5729 23.2367C32.4578 23.2367 32.3425 23.2439 32.2266 23.2496L32.2126 23.2503V23.1254H32.2448C32.3646 23.1248 32.4648 23.0562 32.5119 22.9259L33.0257 21.4511C33.067 21.3321 33.125 21.1723 33.1532 21.0444C33.2541 21.0094 33.3832 20.9449 33.4457 20.9061C33.454 20.9029 33.463 20.899 33.4761 20.899C33.4844 20.8983 33.5013 20.9004 33.5111 20.9179C33.5209 20.9432 33.5303 20.9724 33.5408 20.9983L34.1316 22.6787C34.1703 22.7912 34.2086 22.9099 34.2503 23.0058C34.2882 23.0908 34.3463 23.1246 34.4491 23.1254H34.4823V23.2503L34.4678 23.2496ZM33.557 23.2213C33.716 23.2154 33.8723 23.2092 34.0255 23.2092C34.1748 23.2092 34.3146 23.2154 34.4548 23.221L34.4545 23.1538H34.4491C34.3403 23.154 34.2645 23.1112 34.2243 23.0165C34.182 22.9194 34.1438 22.8001 34.1053 22.688L33.5141 21.0071C33.5046 20.9814 33.4944 20.9527 33.4868 20.9304C33.4842 20.9267 33.4844 20.9267 33.4825 20.9267H33.4761C33.4692 20.9267 33.4657 20.9289 33.458 20.931C33.3951 20.9703 33.2666 21.0348 33.1717 21.0592C33.1518 21.181 33.0934 21.3413 33.052 21.4606L32.5375 22.935C32.4886 23.0746 32.3763 23.154 32.2448 23.1538H32.2401V23.221C32.3508 23.2154 32.4612 23.2092 32.573 23.2092C32.6974 23.2092 32.8245 23.2154 32.9479 23.221V23.1538H32.9262C32.8217 23.1523 32.6753 23.1413 32.6711 23.0268C32.672 22.9633 32.7115 22.8813 32.743 22.7725L32.7559 22.7765L32.743 22.7721L32.8487 22.4288H33.5976L33.7267 22.8103C33.7621 22.9137 33.7914 22.9993 33.7914 23.0463C33.7868 23.1447 33.6516 23.152 33.5787 23.1538H33.557V23.2213ZM32.9004 22.2762L33.209 21.3389H33.2257V21.3531L33.222 21.3541L33.2257 21.3531V21.3389H33.2354L33.5392 22.2762H32.9004ZM32.9392 22.2482H33.5013L33.2219 21.3877L32.9392 22.2482ZM33.2123 21.3572L33.2187 21.3549L33.2123 21.3572Z" fill="white"/>
<path fill-rule="evenodd" clip-rule="evenodd" d="M35.2786 22.9209C35.2786 23.05 35.3678 23.0881 35.471 23.1015C35.6024 23.1111 35.7472 23.1111 35.8954 23.0946C36.0302 23.0785 36.1458 23.0018 36.2035 22.9209C36.2546 22.8503 36.2835 22.7603 36.3032 22.6898H36.3961C36.3607 22.8729 36.3159 23.0531 36.2773 23.236C35.9951 23.236 35.7115 23.2236 35.4292 23.2236C35.1462 23.2236 34.8637 23.236 34.5811 23.236V23.1394H34.6256C34.7415 23.1394 34.8672 23.1236 34.8672 22.9244V21.2731C34.8672 21.1057 34.7415 21.0896 34.6256 21.0896H34.5811V20.9932C34.7511 20.9932 34.9184 21.0059 35.0885 21.0059C35.2526 21.0059 35.4129 20.9932 35.5773 20.9932V21.0896H35.4965C35.3744 21.0896 35.2786 21.093 35.2786 21.2633V22.9209" fill="white"/>
<path fill-rule="evenodd" clip-rule="evenodd" d="M36.2774 23.25C35.994 23.25 35.711 23.2371 35.4292 23.2371C35.1465 23.2371 34.8638 23.25 34.5804 23.25H34.5669V23.1259H34.6255C34.7417 23.1231 34.852 23.1149 34.8533 22.9247V21.2728C34.852 21.1164 34.7421 21.106 34.6255 21.1039H34.5669V20.9795H34.5804C34.7515 20.9795 34.9187 20.992 35.0882 20.992C35.2517 20.992 35.4118 20.9795 35.5772 20.9795H35.5901V21.1039H35.4964C35.3718 21.1071 35.2944 21.1015 35.2916 21.2636V22.9212C35.2925 23.0413 35.3712 23.0734 35.4716 23.0878C35.5282 23.0917 35.588 23.0937 35.6498 23.0937C35.7284 23.0937 35.81 23.0901 35.893 23.0813C36.0239 23.0658 36.1365 22.9901 36.1921 22.9135C36.2417 22.8448 36.2697 22.7567 36.2892 22.6868L36.2918 22.6762H36.413L36.4102 22.6931C36.3738 22.8768 36.3295 23.056 36.2906 23.2392L36.2881 23.25H36.2774ZM36.2656 23.2223C36.3029 23.0478 36.3448 22.8771 36.3796 22.7038H36.3133C36.2936 22.7738 36.2649 22.86 36.2146 22.9299C36.1545 23.0131 36.0355 23.0917 35.8962 23.1089C35.8121 23.1175 35.7286 23.1218 35.6499 23.1218C35.5876 23.1218 35.5275 23.119 35.469 23.1149C35.3646 23.1035 35.2635 23.0586 35.2636 22.9212V21.2636C35.2636 21.0849 35.3766 21.0757 35.4965 21.0757H35.5627V21.0073C35.4045 21.0083 35.2482 21.0203 35.0882 21.0203C34.9222 21.0203 34.7594 21.0083 34.5949 21.0073V21.0757H34.6256C34.7402 21.0757 34.8804 21.0958 34.8804 21.2728V22.9247C34.8804 23.1327 34.7408 23.1542 34.6256 23.1542H34.5949V23.2223C34.8725 23.2217 35.1503 23.2096 35.4293 23.2096C35.7086 23.2096 35.9875 23.2217 36.2656 23.2223Z" fill="white"/>
<path fill-rule="evenodd" clip-rule="evenodd" d="M36.3569 20.9023C36.5508 20.9023 36.6954 21.0512 36.6954 21.2414C36.6954 21.4315 36.5508 21.5788 36.3569 21.5788C36.1635 21.5788 36.0187 21.4315 36.0187 21.2414C36.0187 21.0512 36.1635 20.9023 36.3569 20.9023ZM36.3569 21.5159C36.5087 21.5159 36.6246 21.3869 36.6246 21.2414C36.6246 21.0957 36.51 20.9657 36.3569 20.9657C36.2047 20.9657 36.0889 21.0957 36.0889 21.2414C36.0889 21.3869 36.2047 21.5159 36.3569 21.5159ZM36.1887 21.4199V21.4034C36.23 21.3975 36.2378 21.3986 36.2378 21.3733V21.1225C36.2378 21.0872 36.2343 21.0751 36.19 21.077V21.0597H36.3632C36.4227 21.0597 36.4775 21.0882 36.4775 21.1497C36.4775 21.2 36.4444 21.2373 36.3975 21.2518L36.4532 21.3294C36.4791 21.3644 36.5086 21.3975 36.5276 21.4092V21.4199H36.4618C36.4302 21.4199 36.4022 21.3534 36.3402 21.2643H36.3027V21.3764C36.3027 21.3986 36.3105 21.3975 36.3521 21.4034V21.4199H36.1887ZM36.3027 21.2415H36.3426C36.3863 21.2415 36.4065 21.2085 36.4065 21.1551C36.4065 21.1013 36.3753 21.0823 36.3404 21.0823H36.3027V21.2415Z" fill="white"/>
<path fill-rule="evenodd" clip-rule="evenodd" d="M16.2888 9.65017C16.2888 6.6448 18.7251 4.2085 21.7303 4.2085C24.7357 4.2085 27.172 6.6448 27.172 9.65017C27.172 12.6555 24.7357 15.092 21.7303 15.092C18.7251 15.092 16.2888 12.6555 16.2888 9.65017" fill="#0069AA"/>
<path fill-rule="evenodd" clip-rule="evenodd" d="M25.0213 9.54294C25.0191 8.14941 24.148 6.96093 22.9206 6.49026V12.5954C24.148 12.1241 25.0191 10.9367 25.0213 9.54294ZM20.5791 12.5941V6.4908C19.3528 6.96293 18.4831 8.1497 18.4798 9.54287C18.4831 10.9357 19.3528 12.1223 20.5791 12.5941ZM21.7505 4.38265C18.9007 4.38375 16.5918 6.69308 16.5913 9.54289C16.5918 12.3923 18.9007 14.7013 21.7505 14.7018C24.6003 14.7013 26.9096 12.3923 26.9103 9.54289C26.9096 6.69308 24.6003 4.38375 21.7505 4.38265ZM21.7378 15.1888C18.6194 15.2036 16.0527 12.6772 16.0527 9.60178C16.0527 6.24067 18.6194 3.9159 21.7378 3.9165H23.1992C26.2808 3.9159 29.0933 6.23958 29.0933 9.60178C29.0933 12.6761 26.2808 15.1888 23.1992 15.1888H21.7378Z" fill="white"/>
</g>
<defs>
<clipPath id="clip0_104_4619">
<rect width="44" height="26.4" fill="white" transform="translate(0.733093 0.407227)"/>
</clipPath>
</defs>
</svg>
