<svg width="45" height="27" viewBox="0 0 45 27" fill="none" xmlns="http://www.w3.org/2000/svg">
<g clip-path="url(#clip0_104_4589)">
<rect x="0.733093" y="0.00732422" width="44" height="26.4" rx="4" fill="#000066"/>
<path fill-rule="evenodd" clip-rule="evenodd" d="M37.542 13.2C37.542 18.0644 33.6146 22.0072 28.7687 22.0072C23.9238 22.0072 19.9959 18.0644 19.9959 13.2C19.9959 8.33553 23.9238 4.39258 28.7687 4.39258C33.6146 4.39258 37.542 8.33553 37.542 13.2" fill="#CC0000"/>
<path fill-rule="evenodd" clip-rule="evenodd" d="M21.9916 18.793C21.7493 18.4981 21.5262 18.1864 21.3234 17.8602H24.4327C24.6193 17.5612 24.7878 17.2497 24.9382 16.9275H20.8181C20.6776 16.6258 20.5529 16.3145 20.4466 15.9951H25.309C25.6018 15.1169 25.76 14.1774 25.76 13.2C25.76 12.56 25.6921 11.9359 25.5632 11.3349H20.1932C20.2611 11.0172 20.3468 10.7063 20.4477 10.4023H25.3084C25.2018 10.0828 25.0777 9.77177 24.9374 9.47002H20.8189C20.9694 9.14781 21.1383 8.83687 21.3243 8.53721H24.4317C24.229 8.21179 24.0053 7.90072 23.7635 7.60537H21.9927C22.2652 7.27341 22.5612 6.96178 22.8782 6.67325C21.321 5.25594 19.2543 4.39258 16.9874 4.39258C12.1418 4.39258 8.21387 8.33553 8.21387 13.2C8.21387 18.0644 12.1418 22.0072 16.9874 22.0072C19.2544 22.0072 21.3213 21.1438 22.8782 19.7271C23.1956 19.438 23.492 19.1256 23.7645 18.793H21.9916" fill="#0066CC"/>
<path fill-rule="evenodd" clip-rule="evenodd" d="M22.7531 15.58C22.3782 15.6797 22.0156 15.7284 21.6323 15.7275C20.4095 15.7264 19.7726 15.1673 19.7726 14.0981C19.7726 12.8489 20.5834 11.9302 21.6839 11.9302C22.5841 11.9302 23.1587 12.4453 23.1587 13.2524C23.1587 13.5202 23.1199 13.7812 23.0246 14.15H20.85C20.7727 14.6722 21.1524 14.9015 21.799 14.9015C22.1863 14.9015 22.5364 14.8316 22.9244 14.675L22.7531 15.58ZM22.1684 13.4133C22.1684 13.3346 22.2893 12.7739 21.6599 12.7618C21.3124 12.7618 21.0633 12.9937 20.9625 13.4133H22.1684Z" fill="#000066"/>
<path fill-rule="evenodd" clip-rule="evenodd" d="M23.4898 13.1688C23.4898 13.6302 23.7486 13.949 24.3369 14.1864C24.7866 14.3712 24.8573 14.4248 24.8573 14.59C24.8573 14.8189 24.6587 14.9239 24.2175 14.9211C23.8863 14.9187 23.5839 14.8782 23.2271 14.779L23.0692 15.6206C23.3864 15.6946 23.8311 15.7188 24.2253 15.728C25.3996 15.728 25.9417 15.342 25.9417 14.5077C25.9417 14.0061 25.7156 13.7112 25.1579 13.4913C24.6917 13.3042 24.6371 13.264 24.6371 13.0946C24.6371 12.8958 24.8218 12.7953 25.1819 12.7953C25.4003 12.7953 25.6991 12.8154 25.9828 12.8499L26.1418 12.0037C25.8529 11.9634 25.4146 11.9312 25.1607 11.9312C23.9166 11.9312 23.4861 12.4933 23.4898 13.1688" fill="#000066"/>
<path fill-rule="evenodd" clip-rule="evenodd" d="M19.1766 15.6673H18.2644L18.2861 15.2837C18.008 15.5863 17.6373 15.7273 17.1346 15.7273C16.5394 15.7273 16.1318 15.3188 16.1318 14.7313C16.1318 13.8383 16.8405 13.3231 18.059 13.3231C18.1842 13.3231 18.3435 13.3326 18.5071 13.3511C18.541 13.2315 18.5501 13.1801 18.5501 13.1152C18.5501 12.8708 18.3584 12.7807 17.8456 12.7807C17.34 12.7827 16.9989 12.858 16.6824 12.9433L16.8382 12.1241C17.3857 11.9843 17.744 11.9302 18.1495 11.9302C19.0931 11.9302 19.5915 12.3018 19.5915 12.9997C19.5994 13.186 19.5349 13.5599 19.5023 13.7236C19.4654 13.9614 19.2039 15.3416 19.1766 15.6673ZM18.3758 14.038C18.2603 14.0266 18.2099 14.0231 18.1308 14.0231C17.5086 14.0231 17.1932 14.209 17.1932 14.5761C17.1932 14.8066 17.3471 14.9506 17.5871 14.9506C18.0341 14.9506 18.3569 14.5752 18.3758 14.038Z" fill="#000066"/>
<path fill-rule="evenodd" clip-rule="evenodd" d="M27.8638 15.6094C27.5646 15.6917 27.3312 15.7276 27.079 15.7276C26.5202 15.7276 26.215 15.4409 26.215 14.9303C26.1974 14.79 26.334 14.142 26.365 13.9615C26.3958 13.7804 26.8799 11.1406 26.8799 11.1406H27.9656L27.8014 12.0141H28.3582L28.207 12.9053H27.6476C27.6476 12.9053 27.3408 14.4527 27.3408 14.571C27.3408 14.7584 27.4539 14.84 27.7139 14.84C27.8381 14.84 27.9342 14.8283 28.0084 14.806L27.8638 15.6094" fill="#000066"/>
<path fill-rule="evenodd" clip-rule="evenodd" d="M32.715 11.9303C31.9193 11.9303 31.2975 12.2595 30.9363 12.8084L31.2498 11.9939C30.6722 11.7811 30.2997 12.085 29.9632 12.5167C29.9632 12.5167 29.9068 12.5884 29.8505 12.6539V12.0138H28.8311C28.693 13.1436 28.4488 14.2894 28.2578 15.4216L28.2117 15.6678H29.3083C29.4125 15.0933 29.4979 14.627 29.583 14.2551C29.816 13.2349 30.2081 12.9231 30.7967 13.0612C30.6608 13.3542 30.5863 13.6938 30.5863 14.0694C30.5863 14.9815 31.0794 15.7277 32.3045 15.7277C33.5405 15.7277 34.4355 15.0649 34.4355 13.5535C34.4355 12.642 33.839 11.9303 32.715 11.9303ZM32.3959 14.8412C32.0086 14.8472 31.7737 14.521 31.7737 14.0327C31.7737 13.4542 32.1163 12.8005 32.667 12.8005C33.1112 12.8005 33.2633 13.1542 33.2633 13.5309C33.2633 14.3538 32.9274 14.8412 32.3959 14.8412Z" fill="#000066"/>
<path fill-rule="evenodd" clip-rule="evenodd" d="M15.6208 15.6679H14.5286L15.1777 12.2351L13.6833 15.6679H12.6878L12.5058 12.2553L11.8547 15.6679H10.8638L11.7077 11.2026H13.4145L13.5566 13.6919L14.6379 11.2026H16.4816L15.6208 15.6679" fill="#000066"/>
<path fill-rule="evenodd" clip-rule="evenodd" d="M23.0271 15.305C22.6525 15.4048 22.2897 15.4535 21.9066 15.4526C20.6838 15.4515 20.0469 14.8923 20.0469 13.8232C20.0469 12.574 20.8575 11.6553 21.9579 11.6553C22.8582 11.6553 23.433 12.1704 23.433 12.9774C23.433 13.2452 23.394 13.5056 23.2989 13.8751H21.1245C21.0469 14.3968 21.4265 14.6264 22.073 14.6264C22.4603 14.6264 22.8107 14.5566 23.1985 14.3997L23.0271 15.305ZM22.4424 13.1384C22.4424 13.0595 22.5633 12.499 21.9342 12.4868C21.5867 12.4868 21.3375 12.7186 21.2365 13.1384H22.4424Z" fill="white"/>
<path fill-rule="evenodd" clip-rule="evenodd" d="M23.7642 12.8932C23.7642 13.3548 24.0228 13.6734 24.611 13.911C25.0609 14.0959 25.1315 14.1494 25.1315 14.3142C25.1315 14.5436 24.9328 14.6485 24.492 14.6459C24.1603 14.6433 23.8579 14.6028 23.5014 14.5036L23.3432 15.345C23.6606 15.4192 24.1055 15.4434 24.4993 15.4527C25.6736 15.4527 26.2161 15.0666 26.2161 14.2321C26.2161 13.7307 25.9898 13.4355 25.4321 13.2159C24.9659 13.029 24.9112 12.9882 24.9112 12.8193C24.9112 12.6206 25.0961 12.5197 25.4561 12.5197C25.6745 12.5197 25.9731 12.5401 26.257 12.5747L26.416 11.7284C26.1271 11.6876 25.6888 11.6558 25.4351 11.6558C24.1908 11.6558 23.7603 12.2176 23.7642 12.8932" fill="white"/>
<path fill-rule="evenodd" clip-rule="evenodd" d="M19.4509 15.3922H18.5383L18.5604 15.0086C18.2821 15.3109 17.9117 15.4518 17.4088 15.4518C16.8138 15.4518 16.4058 15.0434 16.4058 14.4559C16.4058 13.5632 17.1146 13.0481 18.3331 13.0481C18.4583 13.0481 18.6175 13.0577 18.7814 13.0755C18.8152 12.9562 18.8243 12.9051 18.8243 12.8401C18.8243 12.5952 18.6326 12.5055 18.12 12.5055C17.6143 12.5076 17.2732 12.5829 16.9568 12.6684L17.1122 11.849C17.6598 11.7093 18.018 11.6553 18.4238 11.6553C19.3674 11.6553 19.8656 12.0265 19.8656 12.7246C19.8738 12.9111 19.8089 13.2843 19.7767 13.4485C19.7394 13.6864 19.478 15.0665 19.4509 15.3922ZM18.65 13.7631C18.5347 13.7511 18.4842 13.748 18.4049 13.748C17.783 13.748 17.4674 13.9337 17.4674 14.3005C17.4674 14.5314 17.6216 14.6757 17.8612 14.6757C18.3085 14.6757 18.6313 14.2999 18.65 13.7631Z" fill="white"/>
<path fill-rule="evenodd" clip-rule="evenodd" d="M28.138 15.3345C27.8387 15.4169 27.6054 15.4528 27.3531 15.4528C26.7943 15.4528 26.4894 15.166 26.4894 14.6554C26.4716 14.5151 26.6082 13.8671 26.6391 13.6866C26.6702 13.5055 27.1542 10.8657 27.1542 10.8657H28.2398L28.0758 11.739H28.6326L28.4812 12.6304H27.922C27.922 12.6304 27.6149 14.1777 27.6149 14.2955C27.6149 14.4837 27.7282 14.5647 27.9881 14.5647C28.1124 14.5647 28.2083 14.5535 28.2829 14.531L28.138 15.3345" fill="white"/>
<path fill-rule="evenodd" clip-rule="evenodd" d="M33.5377 13.2552C33.5377 14.0787 33.2014 14.5661 32.6699 14.5661C32.2826 14.5717 32.0479 14.2459 32.0479 13.7576C32.0479 13.1792 32.3905 12.5253 32.941 12.5253C33.3854 12.5253 33.5377 12.879 33.5377 13.2552ZM34.7097 13.2783C34.7097 12.3669 34.1131 11.6553 32.9894 11.6553C31.6966 11.6553 30.8605 12.5202 30.8605 13.7944C30.8605 14.7063 31.3536 15.4526 32.5788 15.4526C33.8148 15.4526 34.7097 14.7898 34.7097 13.2783Z" fill="white"/>
<path fill-rule="evenodd" clip-rule="evenodd" d="M29.1051 11.7383C28.9671 12.8684 28.7228 14.014 28.532 15.1461L28.486 15.3927H29.5825C29.9777 13.206 30.1104 12.5832 30.9386 12.8024L31.3369 11.7678C30.7591 11.555 30.3874 11.859 30.0509 12.291C30.0812 12.0966 30.1384 11.9088 30.1246 11.7383H29.1051" fill="white"/>
<path fill-rule="evenodd" clip-rule="evenodd" d="M15.8949 15.3927H14.8029L15.4518 11.9599L13.9574 15.3927H12.9618L12.7797 11.9799L12.1286 15.3927H11.1379L11.9816 10.9272H13.6885L13.7786 13.6917L14.9801 10.9272H16.7556L15.8949 15.3927" fill="white"/>
</g>
<defs>
<clipPath id="clip0_104_4589">
<rect width="44" height="26.4" fill="white" transform="translate(0.733093 0.00732422)"/>
</clipPath>
</defs>
</svg>
