<svg width="45" height="27" viewBox="0 0 45 27" fill="none" xmlns="http://www.w3.org/2000/svg">
<g clip-path="url(#clip0_104_4551)">
<rect x="0.733093" y="0.00732422" width="44" height="26.4" rx="4" fill="#000066"/>
<path fill-rule="evenodd" clip-rule="evenodd" d="M25.4298 13.4207C25.4298 18.1631 21.5857 22.0071 16.8434 22.0071C12.1009 22.0071 8.25653 18.1631 8.25653 13.4207C8.25653 8.67838 12.1009 4.83398 16.8434 4.83398C21.5857 4.83398 25.4298 8.67838 25.4298 13.4207" fill="#CC0000"/>
<path fill-rule="evenodd" clip-rule="evenodd" d="M28.3714 4.83398C26.1522 4.83398 24.1309 5.67571 22.6067 7.05655C22.2967 7.33798 22.0072 7.64194 21.74 7.96557H23.4749C23.7118 8.25406 23.9302 8.55734 24.1295 8.87501H21.0853C20.9032 9.16689 20.7376 9.47017 20.5906 9.78444H24.624C24.7618 10.0788 24.8832 10.3819 24.9876 10.6935H20.2269C20.1278 10.9896 20.0442 11.293 19.9775 11.6024H25.2368C25.3627 12.1886 25.4297 12.7968 25.4297 13.4207C25.4297 14.3739 25.2744 15.2915 24.9876 16.1484H20.2269C20.3314 16.4597 20.4527 16.7633 20.5903 17.058H24.624C24.4766 17.3715 24.3119 17.675 24.1287 17.9673H21.0853C21.2838 18.284 21.5026 18.5877 21.74 18.8758H23.4744C23.2077 19.1997 22.918 19.5037 22.607 19.7851C24.131 21.1659 26.1522 22.0071 28.3714 22.0071C33.1135 22.0071 36.9578 18.1631 36.9578 13.4207C36.9578 8.67879 33.1135 4.83398 28.3714 4.83398" fill="#FF9900"/>
<path fill-rule="evenodd" clip-rule="evenodd" d="M14.838 14.3608C14.7401 14.3497 14.697 14.3462 14.6298 14.3462C14.1014 14.3462 13.8342 14.5274 13.8342 14.8855C13.8342 15.1061 13.9646 15.2462 14.1682 15.2462C14.548 15.2462 14.8217 14.8847 14.838 14.3608ZM15.5161 15.9391C15.3918 15.9391 14.7435 15.9391 14.7435 15.9391L14.7612 15.572C14.5257 15.8618 14.2113 16.0003 13.7842 16.0003C13.2792 16.0003 12.9327 15.6059 12.9327 15.0329C12.9327 14.1703 13.5351 13.6672 14.5692 13.6672C14.6752 13.6672 14.8106 13.677 14.9493 13.6945C14.9781 13.5775 14.9857 13.5279 14.9857 13.4648C14.9857 13.2303 14.8234 13.1424 14.3879 13.1424C13.9319 13.1377 13.5557 13.2513 13.4012 13.3021C13.4109 13.2432 13.5305 12.5054 13.5305 12.5054C13.9948 12.3689 14.3012 12.3179 14.646 12.3179C15.4466 12.3179 15.8707 12.6772 15.8697 13.3565C15.8714 13.5387 15.8411 13.7628 15.7943 14.0583C15.7134 14.5712 15.5397 15.6713 15.5161 15.9391Z" fill="#000066"/>
<path fill-rule="evenodd" clip-rule="evenodd" d="M12.5427 15.9394H11.6103L12.1447 12.5915L10.9521 15.9394H10.3169L10.2383 12.6103L9.67709 15.9394H8.80457L9.53339 11.584H10.8739L10.9549 14.0219L11.7728 11.584H13.2637L12.5427 15.9394" fill="#000066"/>
<path fill-rule="evenodd" clip-rule="evenodd" d="M29.523 14.3608C29.4252 14.3497 29.3826 14.3462 29.3155 14.3462C28.7867 14.3462 28.5198 14.5274 28.5198 14.8855C28.5198 15.1061 28.6497 15.2462 28.8538 15.2462C29.2333 15.2462 29.5071 14.8847 29.523 14.3608ZM30.2016 15.9391C30.077 15.9391 29.4292 15.9391 29.4292 15.9391L29.4467 15.572C29.2111 15.8618 28.8969 16.0003 28.4701 16.0003C27.9644 16.0003 27.6183 15.6059 27.6183 15.0329C27.6183 14.1703 28.221 13.6672 29.2548 13.6672C29.3607 13.6672 29.4958 13.677 29.6346 13.6945C29.6636 13.5775 29.671 13.5279 29.671 13.4648C29.671 13.2303 29.5087 13.1424 29.0733 13.1424C28.6172 13.1377 28.2412 13.2513 28.0861 13.3021C28.0964 13.2432 28.2162 12.5054 28.2162 12.5054C28.6803 12.3689 28.987 12.3179 29.3312 12.3179C30.1324 12.3179 30.5559 12.6772 30.5551 13.3565C30.5567 13.5387 30.5267 13.7628 30.4796 14.0583C30.399 14.5712 30.2249 15.6713 30.2016 15.9391Z" fill="#000066"/>
<path fill-rule="evenodd" clip-rule="evenodd" d="M19.659 15.8857C19.4037 15.966 19.2049 16.0007 18.9892 16.0007C18.5127 16.0007 18.2526 15.7269 18.2526 15.2225C18.246 15.0659 18.3211 14.6541 18.3803 14.2785C18.4343 13.9475 18.7847 11.8613 18.7847 11.8613H19.7111L19.6029 12.3975H20.1627L20.0363 13.2488H19.4747C19.3671 13.9223 19.2136 14.7614 19.2118 14.8727C19.2118 15.0553 19.3093 15.1351 19.5311 15.1351C19.6374 15.1351 19.7196 15.1243 19.7824 15.1017L19.659 15.8857" fill="#000066"/>
<path fill-rule="evenodd" clip-rule="evenodd" d="M22.4998 15.8565C22.1815 15.9538 21.8747 16.0013 21.5491 16.0002C20.5118 15.9989 19.971 15.4575 19.971 14.4201C19.971 13.2094 20.6588 12.3179 21.5928 12.3179C22.3567 12.3179 22.8448 12.817 22.8448 13.5994C22.8448 13.8595 22.8114 14.113 22.7304 14.4707H20.8852C20.8229 14.9846 21.1516 15.1986 21.691 15.1986C22.0222 15.1986 22.3215 15.1302 22.6541 14.9759L22.4998 15.8565ZM21.9791 13.7568C21.9844 13.6828 22.0772 13.1245 21.5476 13.1245C21.2528 13.1245 21.0416 13.3494 20.9559 13.7568H21.9791Z" fill="#000066"/>
<path fill-rule="evenodd" clip-rule="evenodd" d="M16.0752 13.5169C16.0752 13.9645 16.2923 14.2735 16.7849 14.5057C17.1623 14.6833 17.2211 14.7358 17.2211 14.8966C17.2211 15.1171 17.0544 15.2173 16.6857 15.2173C16.4074 15.2173 16.1488 15.1736 15.8504 15.0771C15.8504 15.0771 15.7281 15.8582 15.7223 15.8955C15.9341 15.9414 16.123 15.9841 16.6924 16.0003C17.6759 16.0003 18.1302 15.6257 18.1302 14.8163C18.1302 14.3297 17.9402 14.0441 17.4732 13.8291C17.0825 13.6499 17.0373 13.6097 17.0373 13.4444C17.0373 13.253 17.1924 13.1551 17.4935 13.1551C17.6766 13.1551 17.9264 13.1747 18.1635 13.2082L18.296 12.3867C18.0548 12.3483 17.6887 12.3179 17.4756 12.3179C16.4329 12.3179 16.0718 12.8624 16.0752 13.5169" fill="#000066"/>
<path fill-rule="evenodd" clip-rule="evenodd" d="M27.0336 12.4118C27.2925 12.4118 27.5344 12.4791 27.8667 12.647L28.0193 11.7017C27.8823 11.648 27.4018 11.333 26.9947 11.333C26.371 11.333 25.8432 11.6429 25.4726 12.1533C24.9314 11.9742 24.7088 12.3362 24.4363 12.6972L24.1941 12.7536C24.2124 12.6349 24.2291 12.517 24.2238 12.3974H23.3673C23.2506 13.494 23.0434 14.6042 22.8812 15.7012L22.8387 15.9395H23.7714C23.927 14.928 24.0121 14.2806 24.0639 13.842L24.4151 13.6474C24.4679 13.4519 24.6317 13.3862 24.9612 13.3942C24.9181 13.6252 24.8948 13.8685 24.8948 14.1202C24.8948 15.2792 25.5209 16.0007 26.524 16.0007C26.7825 16.0007 27.0045 15.9668 27.3482 15.8731L27.5116 14.8806C27.2024 15.0325 26.9494 15.104 26.7199 15.104C26.1779 15.104 25.85 14.7038 25.85 14.0429C25.85 13.0836 26.3374 12.4118 27.0336 12.4118" fill="#000066"/>
<path fill-rule="evenodd" clip-rule="evenodd" d="M34.9259 11.584L34.7187 12.8423C34.4643 12.507 34.1905 12.2641 33.829 12.2641C33.3586 12.2641 32.9305 12.6207 32.6502 13.1458C32.2598 13.0648 31.8563 12.9271 31.8563 12.9271L31.8561 12.9305C31.8872 12.637 31.9003 12.4584 31.8972 12.3973H31.0408C30.9245 13.4939 30.717 14.6042 30.555 15.7011L30.5121 15.9394H31.4451C31.571 15.122 31.6672 14.4424 31.7382 13.9042C32.057 13.616 32.2166 13.3654 32.5381 13.3817C32.3955 13.7266 32.3123 14.1237 32.3123 14.531C32.3123 15.4162 32.7598 16.0006 33.4377 16.0006C33.7794 16.0006 34.0416 15.8827 34.2972 15.6097L34.2533 15.9391H35.1353L35.8454 11.584H34.9259ZM33.7602 15.1212C33.4429 15.1212 33.2823 14.8859 33.2823 14.4229C33.2823 13.7266 33.5825 13.2331 34.0052 13.2331C34.3256 13.2331 34.4993 13.4768 34.4993 13.9268C34.4993 14.629 34.194 15.1212 33.7602 15.1212Z" fill="#000066"/>
<path fill-rule="evenodd" clip-rule="evenodd" d="M12.8108 15.6807H11.8787L12.4129 12.3328L11.2205 15.6807H10.5851L10.5067 12.3522L9.94528 15.6807H9.07275L9.80158 11.3257H11.1421L11.1796 14.0217L12.0841 11.3257H13.5319L12.8108 15.6807" fill="white"/>
<path fill-rule="evenodd" clip-rule="evenodd" d="M15.1064 14.103C15.0087 14.0916 14.9655 14.0885 14.8984 14.0885C14.37 14.0885 14.1026 14.2695 14.1026 14.6273C14.1026 14.8476 14.2332 14.9886 14.4369 14.9886C14.8165 14.9886 15.0902 14.6271 15.1064 14.103ZM15.7843 15.6807C15.6601 15.6807 15.012 15.6807 15.012 15.6807L15.0297 15.314C14.7941 15.6037 14.4797 15.7422 14.0527 15.7422C13.5475 15.7422 13.2012 15.3473 13.2012 14.7744C13.2012 13.9117 13.8037 13.4093 14.8378 13.4093C14.9435 13.4093 15.0789 13.419 15.2177 13.4369C15.2465 13.3196 15.2541 13.2698 15.2541 13.2065C15.2541 12.9721 15.0918 12.8849 14.6564 12.8849C14.2002 12.8794 13.8242 12.993 13.6695 13.0436C13.6794 12.985 13.7988 12.2472 13.7988 12.2472C14.2633 12.111 14.5697 12.0596 14.9145 12.0596C15.7149 12.0596 16.1389 12.4193 16.1382 13.0983C16.1397 13.2803 16.1097 13.5054 16.0627 13.8001C15.9817 14.3127 15.808 15.4134 15.7843 15.6807Z" fill="white"/>
<path fill-rule="evenodd" clip-rule="evenodd" d="M28.2875 11.443L28.1348 12.3881C27.8019 12.2208 27.5608 12.1531 27.3022 12.1531C26.6062 12.1531 26.1179 12.8257 26.1179 13.7851C26.1179 14.4461 26.4461 14.8454 26.988 14.8454C27.2176 14.8454 27.4712 14.7745 27.7797 14.6221L27.6159 15.6146C27.2727 15.7081 27.0506 15.7423 26.7922 15.7423C25.7885 15.7423 25.1633 15.0206 25.1633 13.8619C25.1633 12.3049 26.0276 11.2168 27.263 11.2168C27.67 11.2168 28.1508 11.3893 28.2875 11.443" fill="white"/>
<path fill-rule="evenodd" clip-rule="evenodd" d="M29.7912 14.103C29.6941 14.0916 29.6508 14.0885 29.5838 14.0885C29.0556 14.0885 28.7882 14.2695 28.7882 14.6273C28.7882 14.8476 28.9186 14.9886 29.1221 14.9886C29.5017 14.9886 29.7756 14.6271 29.7912 14.103ZM30.4697 15.6807C30.3457 15.6807 29.6974 15.6807 29.6974 15.6807L29.715 15.314C29.4794 15.6037 29.165 15.7422 28.7383 15.7422C28.2326 15.7422 27.8867 15.3473 27.8867 14.7744C27.8867 13.9117 28.4887 13.4093 29.5231 13.4093C29.6288 13.4093 29.7639 13.419 29.9026 13.4369C29.9315 13.3196 29.9391 13.2698 29.9391 13.2065C29.9391 12.9721 29.7772 12.8849 29.3415 12.8849C28.8857 12.8794 28.5098 12.993 28.3549 13.0436C28.3646 12.985 28.4842 12.2472 28.4842 12.2472C28.9487 12.111 29.2548 12.0596 29.5996 12.0596C30.4001 12.0596 30.8244 12.4193 30.8233 13.0983C30.8252 13.2803 30.795 13.5054 30.748 13.8001C30.6673 14.3127 30.4936 15.4134 30.4697 15.6807Z" fill="white"/>
<path fill-rule="evenodd" clip-rule="evenodd" d="M19.9271 15.6271C19.6721 15.7074 19.473 15.7423 19.2575 15.7423C18.781 15.7423 18.5207 15.4683 18.5207 14.9645C18.5142 14.8073 18.5895 14.3962 18.6488 14.0202C18.7024 13.6889 19.0529 11.603 19.0529 11.603H19.9796L19.8712 12.139H20.3469L20.2202 12.9901H19.7429C19.6353 13.6642 19.4819 14.5028 19.48 14.6141C19.48 14.7973 19.5778 14.8766 19.7994 14.8766C19.9056 14.8766 19.9877 14.8661 20.0508 14.843L19.9271 15.6271" fill="white"/>
<path fill-rule="evenodd" clip-rule="evenodd" d="M22.7685 15.5989C22.45 15.6965 22.1425 15.7425 21.8174 15.7422C20.7798 15.7415 20.2395 15.1994 20.2395 14.1622C20.2395 12.9511 20.9272 12.0596 21.8605 12.0596C22.6252 12.0596 23.113 12.5587 23.113 13.342C23.113 13.6016 23.0791 13.855 22.999 14.2128H21.1535C21.091 14.7267 21.4201 14.9411 21.9589 14.9411C22.2904 14.9411 22.5896 14.8724 22.9226 14.7177L22.7685 15.5989ZM22.2476 13.4985C22.2526 13.4244 22.3458 12.8663 21.8163 12.8663C21.5213 12.8663 21.3101 13.0917 21.2242 13.4985H22.2476Z" fill="white"/>
<path fill-rule="evenodd" clip-rule="evenodd" d="M16.3433 13.2586C16.3433 13.7071 16.5607 14.0154 17.0534 14.2478C17.4308 14.4253 17.4893 14.4778 17.4893 14.6387C17.4893 14.8595 17.3228 14.9591 16.9538 14.9591C16.6758 14.9591 16.417 14.916 16.1185 14.8198C16.1185 14.8198 15.9964 15.6003 15.9907 15.6371C16.2023 15.6835 16.3914 15.7258 16.9605 15.7422C17.9443 15.7422 18.3986 15.3678 18.3986 14.5584C18.3986 14.0715 18.2083 13.786 17.7414 13.5716C17.3506 13.3918 17.3057 13.3521 17.3057 13.1865C17.3057 12.9951 17.4607 12.8965 17.762 12.8965C17.9447 12.8965 18.1948 12.9169 18.4317 12.9503L18.5644 12.1289C18.323 12.0908 17.9572 12.0596 17.744 12.0596C16.701 12.0596 16.3402 12.6043 16.3433 13.2586" fill="white"/>
<path fill-rule="evenodd" clip-rule="evenodd" d="M35.4036 15.6807H34.5218L34.5655 15.3511C34.3098 15.6243 34.0477 15.7422 33.706 15.7422C33.0286 15.7422 32.5804 15.1584 32.5804 14.2723C32.5804 13.0942 33.2753 12.1012 34.0973 12.1012C34.4587 12.1012 34.7324 12.2488 34.9874 12.5843L35.1942 11.3257H36.1136L35.4036 15.6807ZM34.0283 14.8624C34.4627 14.8624 34.7675 14.3705 34.7675 13.6689C34.7675 13.2188 34.5939 12.9743 34.2735 12.9743C33.8507 12.9743 33.5505 13.4679 33.5505 14.1645C33.5505 14.628 33.7113 14.8624 34.0283 14.8624Z" fill="white"/>
<path fill-rule="evenodd" clip-rule="evenodd" d="M31.3094 12.1391C31.1929 13.2354 30.9855 14.3457 30.8234 15.4428L30.7809 15.6809H31.7132C32.0468 13.5149 32.127 13.0922 32.6502 13.145C32.7334 12.7017 32.8885 12.3135 33.004 12.1178C32.6136 12.0364 32.3955 12.257 32.1098 12.6763C32.1325 12.4949 32.1737 12.3189 32.1659 12.1391H31.3094" fill="white"/>
<path fill-rule="evenodd" clip-rule="evenodd" d="M23.6359 12.1391C23.5188 13.2354 23.3112 14.3457 23.1493 15.4428L23.107 15.6809H24.0396C24.3733 13.5149 24.4532 13.0922 24.9757 13.145C25.0594 12.7017 25.2148 12.3135 25.33 12.1178C24.94 12.0364 24.7215 12.257 24.4363 12.6763C24.4588 12.4949 24.5002 12.3189 24.492 12.1391H23.6359" fill="white"/>
</g>
<defs>
<clipPath id="clip0_104_4551">
<rect width="44" height="26.4" fill="white" transform="translate(0.733093 0.00732422)"/>
</clipPath>
</defs>
</svg>
