<svg width="45" height="27" viewBox="0 0 45 27" fill="none" xmlns="http://www.w3.org/2000/svg">
<g clip-path="url(#clip0_104_4720)">
<rect x="0.733093" y="0.407227" width="44" height="26.4" rx="4" fill="#862165"/>
<path fill-rule="evenodd" clip-rule="evenodd" d="M28.3687 11.3171C28.9542 11.3171 29.4284 10.843 29.4284 10.2582C29.4284 9.67323 28.9542 9.1987 28.3687 9.1987C27.7844 9.1987 27.3102 9.67323 27.3102 10.2582C27.3102 10.843 27.7844 11.3171 28.3687 11.3171ZM20.2535 11.8886C20.2056 12.0089 19.8616 12.981 19.0292 13.9884V9.68073L16.8116 10.119V17.9274H19.0292V15.5138C19.6716 16.4769 19.9887 17.9274 19.9887 17.9274H22.6449C22.3822 16.8351 21.2328 14.821 21.2328 14.821C22.2643 13.5133 22.7174 12.1198 22.7894 11.8886H20.2535ZM26.0834 11.8073C24.0973 11.8711 23.0888 12.7622 23.0888 14.5337V17.9274H25.256V15.1598C25.256 14.0993 25.3948 13.6444 26.6534 13.6012V11.8384C26.4416 11.7933 26.0834 11.8073 26.0834 11.8073ZM13.0924 12.7486C12.8208 12.7309 12.1919 12.6903 12.1919 12.1241C12.1919 11.4409 13.0973 11.4409 13.4369 11.4409C14.0339 11.4409 14.8072 11.6172 15.3595 11.7825C15.3595 11.7825 15.6676 11.8911 15.9298 12.0023L15.9541 12.0089V11.9841V10.1379L15.9207 10.1281C15.2689 9.9001 14.511 9.68076 13.1061 9.68076C10.6835 9.68076 9.8252 11.0919 9.8252 12.3009C9.8252 12.9978 10.1238 14.6381 12.8984 14.8274C13.1334 14.8417 13.7576 14.8777 13.7576 15.4627C13.7576 15.9459 13.2466 16.2305 12.3872 16.2305C11.4454 16.2305 10.5315 15.9905 9.97662 15.7627V17.6895C10.8075 17.9072 11.7439 18.0161 12.8416 18.0161C15.2104 18.0161 16.2712 16.6809 16.2712 15.3576C16.2712 13.8571 15.084 12.8821 13.0924 12.7486ZM27.2946 17.9274H29.4439V11.8956H27.2946V17.9274ZM33.4913 10.0651V17.9274H35.6412V9.68073L33.4913 10.0651ZM30.3546 10.0651L32.5022 9.68073V17.9274H30.3546V10.0651Z" fill="white"/>
</g>
<defs>
<clipPath id="clip0_104_4720">
<rect width="44" height="26.4" fill="white" transform="translate(0.733093 0.407227)"/>
</clipPath>
</defs>
</svg>
