<svg width="45" height="27" viewBox="0 0 45 27" fill="none" xmlns="http://www.w3.org/2000/svg">
<g clip-path="url(#clip0_104_4542)">
<rect x="0.733093" y="0.00732422" width="44" height="26.4" rx="4" fill="#26337A"/>
<path fill-rule="evenodd" clip-rule="evenodd" d="M18.9886 17.4077L20.3415 9.01514H22.5041L21.1513 17.4077H18.9886" fill="#FFFFFE"/>
<path fill-rule="evenodd" clip-rule="evenodd" d="M28.9956 9.22126C28.568 9.05283 27.8955 8.86914 27.0578 8.86914C24.9197 8.86914 23.4147 10.0081 23.4022 11.6389C23.3886 12.8453 24.4762 13.518 25.2961 13.919C26.1388 14.33 26.4219 14.593 26.4186 14.9605C26.4127 15.5226 25.7459 15.7801 25.1242 15.7801C24.2584 15.7801 23.7984 15.6533 23.0872 15.34L22.809 15.2064L22.5066 17.085C23.0109 17.3188 23.9457 17.5216 24.9159 17.5323C27.1881 17.5323 28.6646 16.4071 28.6819 14.6656C28.6897 13.709 28.1134 12.9839 26.8654 12.3853C26.1097 11.9961 25.6459 11.7383 25.6512 11.3444C25.6517 10.9956 26.043 10.6222 26.89 10.6222C27.5974 10.6108 28.1095 10.7742 28.5085 10.9447L28.7027 11.0406L28.9956 9.22126" fill="#FFFFFE"/>
<path fill-rule="evenodd" clip-rule="evenodd" d="M31.8751 14.4325C32.0543 13.9501 32.7366 12.0866 32.7366 12.0866C32.7239 12.1088 32.9148 11.6005 33.024 11.2859L33.17 12.0097C33.17 12.0097 33.5849 14.0129 33.6704 14.4325C33.3337 14.4325 32.2974 14.4325 31.8751 14.4325ZM34.543 9.02393H32.8718C32.3534 9.02393 31.9654 9.17241 31.7383 9.71962L28.5268 17.4109H30.7982C30.7982 17.4109 31.1687 16.3763 31.2528 16.1492C31.5006 16.1492 33.7077 16.1535 34.0227 16.1535C34.0875 16.4464 34.286 17.4109 34.286 17.4109H36.2932L34.543 9.02393Z" fill="#FFFFFE"/>
<path fill-rule="evenodd" clip-rule="evenodd" d="M17.1744 9.02246L15.0578 14.7442L14.8311 13.5811C14.4366 12.241 13.2088 10.7885 11.8354 10.0607L13.7718 17.4007L16.0605 17.3993L19.4661 9.02246H17.1744" fill="#FFFFFE"/>
<path fill-rule="evenodd" clip-rule="evenodd" d="M13.0929 9.0166H9.6056L9.5769 9.19049C12.2905 9.88569 14.0859 11.5638 14.8311 13.581L14.0733 9.72469C13.9425 9.19285 13.5626 9.03519 13.0929 9.0166" fill="#EC982D"/>
</g>
<defs>
<clipPath id="clip0_104_4542">
<rect width="44" height="26.4" fill="white" transform="translate(0.733093 0.00732422)"/>
</clipPath>
</defs>
</svg>
