<svg width="20" height="14" viewBox="0 0 20 14" fill="none" xmlns="http://www.w3.org/2000/svg">
<g clip-path="url(#clip0_8774_1441)">
<path d="M0.00146484 0.0488281H23.0035V14.0488H0.00146484V0.0488281Z" fill="white"/>
<path d="M0.00146484 0.0488281H23.0035V0.995077H0.00146484V0.0488281ZM0.00146484 1.94133H23.0035V2.88757H0.00146484V1.94133ZM0.00146484 3.83375H23.0035V4.77999H0.00146484V3.83375ZM0.00146484 5.72624H23.0035V6.67249H0.00146484V5.72624ZM0.00146484 7.61866H23.0035V8.56491H0.00146484V7.61866ZM0.00146484 9.51116H23.0035V10.4574H0.00146484V9.51116ZM0.00146484 11.4036H23.0035V12.3498H0.00146484V11.4036Z" fill="#B22234"/>
<path d="M0.0333252 13.1289H23.0354V14.0752H0.0333252V13.1289ZM0.0333252 15.0214H23.0354V15.9677H0.0333252V15.0214ZM0.0333252 16.9138H23.0354V17.8601H0.0333252V16.9138ZM0.0333252 18.8063H23.0354V19.7526H0.0333252V18.8063ZM0.0333252 20.6987H23.0354V21.645H0.0333252V20.6987ZM0.0333252 22.5912H23.0354V23.5375H0.0333252V22.5912ZM0.0333252 24.4837H23.0354V25.4299H0.0333252V24.4837Z" fill="#B22234"/>
<path d="M0.00146484 0.0488281H9.20229V6.67241H0.00146484V0.0488281Z" fill="#3C3B6E"/>
<path d="M0.433716 0.58696L0.652925 0.748771L0.569198 1.01061L0.788331 0.848803L1.00754 1.01061L0.923813 0.748771L1.14295 0.58696H0.872058L0.788331 0.325195L0.704603 0.58696H0.433716ZM1.95914 0.58696L2.17827 0.748771L2.09454 1.01061L2.31375 0.848803L2.53296 1.01061L2.44923 0.748771L2.66837 0.58696H2.39748L2.31375 0.325195L2.23002 0.58696H1.95914ZM3.48456 0.58696L3.70369 0.748771L3.61996 1.01061L3.83917 0.848803L4.0583 1.01061L3.97458 0.748771L4.19379 0.58696H3.9229L3.83917 0.325195L3.75544 0.58696H3.48456ZM5.00998 0.58696L5.22911 0.748771L5.14538 1.01061L5.36459 0.848803L5.58372 1.01061L5.5 0.748771L5.71921 0.58696H5.44824L5.36459 0.325195L5.28086 0.58696H5.00998ZM6.53532 0.58696L6.75453 0.748771L6.6708 1.01061L6.88993 0.848803L7.10914 1.01061L7.02542 0.748771L7.24455 0.58696H6.97366L6.88993 0.325195L6.80621 0.58696H6.53532ZM8.06074 0.58696L8.27987 0.748771L8.19614 1.01061L8.41535 0.848803L8.63449 1.01061L8.55076 0.748771L8.76997 0.58696H8.49908L8.41535 0.325195L8.33163 0.58696H8.06074ZM1.19639 1.25127L1.4156 1.41308L1.33187 1.67484L1.55108 1.51303L1.77021 1.67484L1.68648 1.41308L1.90569 1.25127H1.63473L1.55108 0.989424L1.46735 1.25127H1.19639ZM2.72181 1.25127L2.94102 1.41308L2.85729 1.67484L3.07642 1.51303L3.29563 1.67484L3.2119 1.41308L3.43104 1.25127H3.16015L3.07642 0.989424L2.9927 1.25127H2.72181ZM4.24723 1.25127L4.46644 1.41308L4.38271 1.67484L4.60184 1.51303L4.82105 1.67484L4.73732 1.41308L4.95646 1.25127H4.68557L4.60184 0.989424L4.51812 1.25127H4.24723ZM5.77265 1.25127L5.99178 1.41308L5.90805 1.67484L6.12726 1.51303L6.3464 1.67484L6.26267 1.41308L6.48188 1.25127H6.21099L6.12726 0.989424L6.04354 1.25127H5.77265ZM7.29799 1.25127L7.5172 1.41308L7.43347 1.67484L7.65261 1.51303L7.87182 1.67484L7.78809 1.41308L8.00722 1.25127H7.73633L7.65261 0.989424L7.56895 1.25127H7.29799ZM0.433716 1.91549L0.652925 2.07731L0.569198 2.33915L0.788331 2.17734L1.00754 2.33915L0.923813 2.07731L1.14295 1.91549H0.872058L0.788331 1.65373L0.704603 1.91549H0.433716ZM1.95914 1.91549L2.17827 2.07731L2.09454 2.33915L2.31375 2.17734L2.53296 2.33915L2.44923 2.07731L2.66837 1.91549H2.39748L2.31375 1.65373L2.23002 1.91549H1.95914ZM3.48456 1.91549L3.70369 2.07731L3.61996 2.33915L3.83917 2.17734L4.0583 2.33915L3.97458 2.07731L4.19379 1.91549H3.9229L3.83917 1.65373L3.75544 1.91549H3.48456ZM5.00998 1.91549L5.22911 2.07731L5.14538 2.33915L5.36459 2.17734L5.58372 2.33915L5.5 2.07731L5.71921 1.91549H5.44824L5.36459 1.65373L5.28086 1.91549H5.00998ZM6.53532 1.91549L6.75453 2.07731L6.6708 2.33915L6.88993 2.17734L7.10914 2.33915L7.02542 2.07731L7.24455 1.91549H6.97366L6.88993 1.65373L6.80621 1.91549H6.53532ZM8.06074 1.91549L8.27987 2.07731L8.19614 2.33915L8.41535 2.17734L8.63449 2.33915L8.55076 2.07731L8.76997 1.91549H8.49908L8.41535 1.65373L8.33163 1.91549H8.06074ZM1.21525 2.58198L1.43438 2.74379L1.35073 3.00556L1.56986 2.84375L1.78907 3.00556L1.70535 2.74372L1.92448 2.58198H1.65359L1.56986 2.32014L1.48614 2.58198H1.21525ZM2.74067 2.58198L2.9598 2.74379L2.87607 3.00556L3.09528 2.84375L3.31442 3.00556L3.23069 2.74372L3.4499 2.58198H3.17901L3.09528 2.32014L3.01156 2.58198H2.74067ZM4.26609 2.58198L4.48522 2.74379L4.40149 3.00556L4.6207 2.84375L4.83984 3.00556L4.75611 2.74372L4.97532 2.58198H4.70436L4.6207 2.32014L4.53698 2.58198H4.26609ZM5.79143 2.58198L6.01064 2.74379L5.92691 3.00556L6.14605 2.84375L6.36526 3.00556L6.28153 2.74372L6.50066 2.58198H6.22978L6.14605 2.32014L6.06232 2.58198H5.79143ZM7.31685 2.58198L7.53599 2.74379L7.45226 3.00556L7.67147 2.84375L7.8906 3.00556L7.80687 2.74372L8.02608 2.58198H7.7552L7.67147 2.32014L7.58774 2.58198H7.31685ZM0.456871 3.24068L0.676081 3.40241L0.592353 3.66426L0.811486 3.50244L1.0307 3.66426L0.946968 3.40241L1.1661 3.24068H0.895214L0.811486 2.97884L0.727759 3.24068H0.456871ZM1.98229 3.24068L2.20142 3.40241L2.1177 3.66426L2.33691 3.50244L2.55604 3.66426L2.47239 3.40241L2.69152 3.24068H2.42063L2.33691 2.97884L2.25318 3.24068H1.98229ZM3.50771 3.24068L3.72684 3.40241L3.64312 3.66426L3.86233 3.50244L4.08146 3.66426L3.99773 3.40241L4.21694 3.24068H3.94605L3.86233 2.97884L3.7786 3.24068H3.50771ZM5.03305 3.24068L5.25226 3.40241L5.16854 3.66426L5.38767 3.50244L5.60688 3.66426L5.52315 3.40241L5.74236 3.24068H5.4714L5.38767 2.97884L5.30402 3.24068H5.03305ZM6.55847 3.24068L6.77761 3.40241L6.69396 3.66426L6.91309 3.50244L7.1323 3.66426L7.04857 3.40241L7.2677 3.24068H6.99682L6.91309 2.97884L6.82936 3.24068H6.55847ZM8.08389 3.24068L8.30303 3.40241L8.2193 3.66426L8.43851 3.50244L8.65764 3.66426L8.57392 3.40241L8.79313 3.24068H8.52224L8.43851 2.97884L8.35478 3.24068H8.08389ZM0.471209 4.5481L0.690342 4.70991L0.606615 4.97176L0.825824 4.80994L1.04496 4.97176L0.96123 4.70991L1.18044 4.5481H0.909552L0.825824 4.28634L0.742097 4.5481H0.471209ZM1.99655 4.5481L2.21576 4.70991L2.13203 4.97176L2.35117 4.80994L2.57038 4.97176L2.48665 4.70991L2.70578 4.5481H2.4349L2.35117 4.28634L2.26744 4.5481H1.99655ZM3.52197 4.5481L3.74111 4.70991L3.65745 4.97176L3.87659 4.80994L4.0958 4.97176L4.01207 4.70991L4.2312 4.5481H3.96031L3.87659 4.28634L3.79286 4.5481H3.52197ZM5.04739 4.5481L5.26653 4.70991L5.1828 4.97176L5.40201 4.80994L5.62114 4.97176L5.53749 4.70991L5.75662 4.5481H5.48573L5.40201 4.28634L5.31828 4.5481H5.04739ZM6.57274 4.5481L6.79195 4.70991L6.70822 4.97176L6.92735 4.80994L7.14656 4.97176L7.06283 4.70991L7.28204 4.5481H7.01108L6.92735 4.28634L6.8437 4.5481H6.57274ZM8.09816 4.5481L8.31729 4.70991L8.23364 4.97176L8.45277 4.80994L8.67198 4.97176L8.58825 4.70991L8.80739 4.5481H8.5365L8.45277 4.28634L8.36904 4.5481H8.09816ZM0.452577 5.87095L0.67171 6.03276L0.587983 6.2946L0.807193 6.13279L1.02633 6.2946L0.942598 6.03276L1.16181 5.87095H0.890843L0.807193 5.60918L0.723465 5.87095H0.452577ZM1.97792 5.87095L2.19713 6.03276L2.1134 6.2946L2.33254 6.13279L2.55175 6.2946L2.46802 6.03276L2.68715 5.87095H2.41626L2.33254 5.60918L2.24881 5.87095H1.97792ZM3.50334 5.87095L3.72247 6.03276L3.63882 6.2946L3.85796 6.13279L4.07717 6.2946L3.99344 6.03276L4.21257 5.87095H3.94168L3.85796 5.60918L3.77423 5.87095H3.50334ZM5.02876 5.87095L5.24789 6.03276L5.16417 6.2946L5.38338 6.13279L5.60251 6.2946L5.51886 6.03276L5.73799 5.87095H5.4671L5.38338 5.60918L5.29965 5.87095H5.02876ZM6.5541 5.87095L6.77331 6.03276L6.68959 6.2946L6.90872 6.13279L7.12793 6.2946L7.0442 6.03276L7.26341 5.87095H6.99245L6.90872 5.60918L6.82507 5.87095H6.5541ZM8.07952 5.87095L8.29866 6.03276L8.21501 6.2946L8.43414 6.13279L8.65335 6.2946L8.56962 6.03276L8.78875 5.87095H8.51787L8.43414 5.60918L8.35041 5.87095H8.07952ZM1.21977 3.88785L1.43891 4.04966L1.35526 4.31142L1.57439 4.14961L1.7936 4.31142L1.70987 4.04966L1.929 3.88785H1.65812L1.57439 3.626L1.49066 3.88785H1.21977ZM2.74519 3.88785L2.96433 4.04966L2.8806 4.31142L3.09981 4.14961L3.31894 4.31142L3.23529 4.04966L3.45442 3.88785H3.18354L3.09981 3.626L3.01608 3.88785H2.74519ZM4.27061 3.88785L4.48975 4.04966L4.40602 4.31142L4.62523 4.14961L4.84436 4.31142L4.76063 4.04966L4.97984 3.88785H4.70896L4.62523 3.626L4.5415 3.88785H4.27061ZM5.79596 3.88785L6.01517 4.04966L5.93144 4.31142L6.15057 4.14961L6.36978 4.31142L6.28605 4.04966L6.50519 3.88785H6.2343L6.15057 3.626L6.06684 3.88785H5.79596ZM7.32138 3.88785L7.54051 4.04966L7.45678 4.31142L7.67599 4.14961L7.89512 4.31142L7.81147 4.04966L8.03061 3.88785H7.75972L7.67599 3.626L7.59226 3.88785H7.32138ZM1.21525 5.20859L1.43446 5.3704L1.35073 5.63224L1.56986 5.47043L1.78907 5.63224L1.70535 5.3704L1.92448 5.20859H1.65359L1.56986 4.94683L1.48614 5.20859H1.21525ZM2.74067 5.20859L2.9598 5.3704L2.87607 5.63224L3.09528 5.47043L3.31449 5.63224L3.23077 5.3704L3.4499 5.20859H3.17901L3.09528 4.94683L3.01156 5.20859H2.74067ZM4.26609 5.20859L4.48522 5.3704L4.40149 5.63224L4.6207 5.47043L4.83984 5.63224L4.75611 5.3704L4.97532 5.20859H4.70443L4.6207 4.94683L4.53698 5.20859H4.26609ZM5.79143 5.20859L6.01064 5.3704L5.92691 5.63224L6.14605 5.47043L6.36526 5.63224L6.28153 5.3704L6.50066 5.20859H6.22978L6.14605 4.94683L6.06232 5.20859H5.79143ZM7.31685 5.20859L7.53599 5.3704L7.45226 5.63224L7.67147 5.47043L7.8906 5.63224L7.80695 5.3704L8.02608 5.20859H7.7552L7.67147 4.94683L7.58774 5.20859H7.31685Z" fill="white"/>
</g>
<defs>
<clipPath id="clip0_8774_1441">
<rect width="20" height="14" rx="2" fill="white"/>
</clipPath>
</defs>
</svg>
