<svg width="84" height="18" viewBox="0 0 84 18" fill="none" xmlns="http://www.w3.org/2000/svg">
<path d="M8.16577 5H10.1658V9H13.1658V11H8.16577V5Z" fill="white"/>
<path fill-rule="evenodd" clip-rule="evenodd" d="M0.165771 9C0.165771 4.02944 4.19521 0 9.16577 0C14.1363 0 18.1658 4.02944 18.1658 9C18.1658 13.9706 14.1363 18 9.16577 18C4.19521 18 0.165771 13.9706 0.165771 9ZM2.16577 9C2.16577 5.13401 5.29978 2 9.16577 2C13.0318 2 16.1658 5.13401 16.1658 9C16.1658 12.866 13.0318 16 9.16577 16C5.29978 16 2.16577 12.866 2.16577 9Z" fill="white"/>
<path d="M28.907 15H26.78V4.72559L23.6423 5.79785V3.99609L28.6345 2.15918H28.907V15ZM34.7781 12.75C35.1765 12.75 35.4841 12.8643 35.7009 13.0928C35.9177 13.3154 36.0261 13.5967 36.0261 13.9365C36.0261 14.2705 35.9177 14.5488 35.7009 14.7715C35.4841 14.9883 35.1765 15.0967 34.7781 15.0967C34.3972 15.0967 34.0955 14.9883 33.8728 14.7715C33.6501 14.5547 33.5388 14.2764 33.5388 13.9365C33.5388 13.5967 33.6472 13.3154 33.864 13.0928C34.0808 12.8643 34.3855 12.75 34.7781 12.75ZM34.7781 5.28809C35.1765 5.28809 35.4841 5.40234 35.7009 5.63086C35.9177 5.85352 36.0261 6.13477 36.0261 6.47461C36.0261 6.80859 35.9177 7.08691 35.7009 7.30957C35.4841 7.52637 35.1765 7.63477 34.7781 7.63477C34.3972 7.63477 34.0955 7.52637 33.8728 7.30957C33.6501 7.09277 33.5388 6.81445 33.5388 6.47461C33.5388 6.13477 33.6472 5.85352 33.864 5.63086C34.0808 5.40234 34.3855 5.28809 34.7781 5.28809ZM46.74 15H38.1355V13.5322L42.3982 8.88281C43.0134 8.19727 43.45 7.62598 43.7078 7.16895C43.9714 6.70605 44.1033 6.24316 44.1033 5.78027C44.1033 5.1709 43.9304 4.67871 43.5847 4.30371C43.2449 3.92871 42.7849 3.74121 42.2048 3.74121C41.5134 3.74121 40.9773 3.95215 40.5964 4.37402C40.2156 4.7959 40.0251 5.37305 40.0251 6.10547H37.8894C37.8894 5.32617 38.0652 4.62598 38.4167 4.00488C38.7742 3.37793 39.281 2.8916 39.9373 2.5459C40.5994 2.2002 41.3611 2.02734 42.2224 2.02734C43.4646 2.02734 44.4431 2.34082 45.158 2.96777C45.8787 3.58887 46.239 4.4502 46.239 5.55176C46.239 6.19043 46.0574 6.86133 45.6941 7.56445C45.3367 8.26172 44.7478 9.05566 43.9275 9.94629L40.7986 13.2949H46.74V15ZM56.9705 15H48.366V13.5322L52.6287 8.88281C53.2439 8.19727 53.6804 7.62598 53.9382 7.16895C54.2019 6.70605 54.3337 6.24316 54.3337 5.78027C54.3337 5.1709 54.1609 4.67871 53.8152 4.30371C53.4753 3.92871 53.0154 3.74121 52.4353 3.74121C51.7439 3.74121 51.2078 3.95215 50.8269 4.37402C50.446 4.7959 50.2556 5.37305 50.2556 6.10547H48.1199C48.1199 5.32617 48.2957 4.62598 48.6472 4.00488C49.0046 3.37793 49.5115 2.8916 50.1677 2.5459C50.8298 2.2002 51.5916 2.02734 52.4529 2.02734C53.6951 2.02734 54.6736 2.34082 55.3884 2.96777C56.1091 3.58887 56.4695 4.4502 56.4695 5.55176C56.4695 6.19043 56.2878 6.86133 55.9246 7.56445C55.5671 8.26172 54.9783 9.05566 54.158 9.94629L51.0291 13.2949H56.9705V15ZM60.0203 12.75C60.4187 12.75 60.7263 12.8643 60.9431 13.0928C61.1599 13.3154 61.2683 13.5967 61.2683 13.9365C61.2683 14.2705 61.1599 14.5488 60.9431 14.7715C60.7263 14.9883 60.4187 15.0967 60.0203 15.0967C59.6394 15.0967 59.3376 14.9883 59.115 14.7715C58.8923 14.5547 58.781 14.2764 58.781 13.9365C58.781 13.5967 58.8894 13.3154 59.1062 13.0928C59.323 12.8643 59.6277 12.75 60.0203 12.75ZM60.0203 5.28809C60.4187 5.28809 60.7263 5.40234 60.9431 5.63086C61.1599 5.85352 61.2683 6.13477 61.2683 6.47461C61.2683 6.80859 61.1599 7.08691 60.9431 7.30957C60.7263 7.52637 60.4187 7.63477 60.0203 7.63477C59.6394 7.63477 59.3376 7.52637 59.115 7.30957C58.8923 7.09277 58.781 6.81445 58.781 6.47461C58.781 6.13477 58.8894 5.85352 59.1062 5.63086C59.323 5.40234 59.6277 5.28809 60.0203 5.28809ZM71.7185 9.6123C71.7185 11.4521 71.3728 12.8408 70.6814 13.7783C69.9958 14.71 68.95 15.1758 67.5437 15.1758C66.1609 15.1758 65.1179 14.7217 64.4148 13.8135C63.7175 12.8994 63.3601 11.5488 63.3425 9.76172V7.54688C63.3425 5.70703 63.6853 4.32715 64.3708 3.40723C65.0623 2.4873 66.114 2.02734 67.5261 2.02734C68.9265 2.02734 69.9695 2.47559 70.655 3.37207C71.3464 4.26855 71.7009 5.61035 71.7185 7.39746V9.6123ZM69.5828 7.22168C69.5828 6.02051 69.4187 5.1416 69.0906 4.58496C68.7625 4.02246 68.241 3.74121 67.5261 3.74121C66.8289 3.74121 66.3162 4.00781 65.988 4.54102C65.6599 5.06836 65.4871 5.89453 65.4695 7.01953V9.91992C65.4695 11.1152 65.6365 12.0059 65.9705 12.5918C66.3044 13.1777 66.8289 13.4707 67.5437 13.4707C68.2292 13.4707 68.7361 13.2012 69.0642 12.6621C69.3923 12.1172 69.5652 11.2676 69.5828 10.1133V7.22168ZM79.3914 15H77.2644V4.72559L74.1267 5.79785V3.99609L79.1189 2.15918H79.3914V15Z" fill="white"/>
</svg>
