<svg width="16" height="16" viewBox="0 0 16 16" fill="none" xmlns="http://www.w3.org/2000/svg">
<g clip-path="url(#clip0_104_1550)">
<circle cx="8" cy="8" r="8" fill="#1DA1F3"/>
<path d="M11.398 6.50143C11.398 6.57727 11.398 6.6531 11.398 6.7181C11.398 8.9606 9.68634 11.5498 6.56634 11.5498C5.60217 11.5498 4.71384 11.2681 3.95551 10.7914C4.08551 10.8023 4.22634 10.8131 4.35634 10.8131C5.14717 10.8131 5.88384 10.5423 6.46884 10.0873C5.72134 10.0764 5.09301 9.5781 4.88717 8.90643C4.99551 8.9281 5.09301 8.93893 5.21217 8.93893C5.36384 8.93893 5.51551 8.91727 5.65634 8.87393C4.87634 8.72227 4.29134 8.03977 4.29134 7.21643C4.29134 7.2056 4.29134 7.2056 4.29134 7.19477C4.51884 7.32477 4.77884 7.4006 5.06051 7.41143C4.60551 7.1081 4.30217 6.5881 4.30217 5.99227C4.30217 5.6781 4.38884 5.3856 4.52967 5.13643C5.36384 6.1656 6.62051 6.83727 8.02884 6.9131C7.99634 6.79393 7.98551 6.6531 7.98551 6.5231C7.98551 5.5806 8.74384 4.82227 9.68634 4.82227C10.1738 4.82227 10.618 5.0281 10.9213 5.3531C11.3113 5.27727 11.6688 5.13643 12.0047 4.94143C11.8747 5.34227 11.6038 5.66727 11.2572 5.88393C11.6038 5.8406 11.9288 5.75393 12.2322 5.6131C12.0155 5.95977 11.7338 6.2631 11.398 6.50143Z" fill="#FAFBFC"/>
</g>
<defs>
<clipPath id="clip0_104_1550">
<rect width="16" height="16" fill="white"/>
</clipPath>
</defs>
</svg>
