<svg width="37" height="36" viewBox="0 0 37 36" fill="none" xmlns="http://www.w3.org/2000/svg">
<g clip-path="url(#clip0_104_4790)">
<circle cx="18.7332" cy="18" r="18" fill="#25D366"/>
<path d="M23.6084 20.1447C23.3159 20.0472 22.0484 19.3647 21.7559 19.2672C21.4634 19.1697 21.3659 19.1697 21.1709 19.3647C20.9026 19.7414 20.6094 20.0997 20.2934 20.4372C20.0984 20.6322 20.0009 20.6322 19.7084 20.5347C18.8933 20.2603 18.1571 19.7919 17.5634 19.1697C16.9589 18.6543 16.4619 18.0248 16.1009 17.3172C15.9059 17.0247 16.1009 16.9272 16.1984 16.7322C16.3515 16.5897 16.4829 16.4254 16.5884 16.2447C16.6859 16.0497 16.7834 15.9522 16.8809 15.7572C16.9784 15.5622 16.8809 15.4647 16.8809 15.2697C16.8809 15.0747 16.2959 13.8072 16.0034 13.3197C15.7109 12.8322 15.6134 12.8322 15.4184 12.8322H14.9309C14.6754 12.8436 14.4328 12.9476 14.2484 13.1247C13.9278 13.4013 13.6737 13.7465 13.5049 14.1347C13.3361 14.5229 13.257 14.9442 13.2734 15.3672C13.3627 16.364 13.7348 17.3145 14.3459 18.107C15.4534 19.8617 17.0496 21.2545 18.9381 22.1142C19.6206 22.4067 20.1081 22.5042 20.4981 22.6992C21.0335 22.871 21.6037 22.9045 22.1556 22.7967C22.8997 22.5981 23.5534 22.1508 24.0081 21.5292C24.1313 21.1177 24.197 20.6912 24.2031 20.2617C24.0039 20.2634 23.806 20.2304 23.6181 20.1642L23.6084 20.1447ZM18.7334 26.7747C17.1137 26.7942 15.5215 26.3547 14.1411 25.5072L13.8486 25.3122L10.4264 26.1897L11.3136 22.8747L11.1186 22.5822C10.2273 21.1444 9.75464 19.4866 9.75361 17.795C9.75168 16.0162 10.2775 14.2768 11.2645 12.797C12.2516 11.3172 13.6555 10.1635 15.2985 9.48187C16.9415 8.80027 18.7498 8.62142 20.4945 8.96798C22.2392 9.31453 23.8418 10.1709 25.0996 11.4287C26.3574 12.6865 27.2138 14.2891 27.5603 16.0338C27.9069 17.7785 27.7281 19.5868 27.0465 21.2299C26.3649 22.8729 25.2111 24.2767 23.7313 25.2638C22.2515 26.2508 20.5121 26.7766 18.7334 26.7747ZM26.3481 10.2777C24.3009 8.30433 21.5767 7.18816 18.7334 7.15771C15.8889 7.15771 13.161 8.28767 11.1496 10.299C9.13831 12.3103 8.00836 15.0383 8.00836 17.8827C8.00788 19.7719 8.51284 21.6267 9.47086 23.255L7.89136 28.8417L13.6536 27.3792C15.2403 28.2433 17.0244 28.6801 18.8309 28.6467C20.2393 28.6467 21.6339 28.3693 22.9351 27.8303C24.2364 27.2913 25.4187 26.5013 26.4146 25.5054C27.4105 24.5095 28.2005 23.3272 28.7395 22.026C29.2784 20.7248 29.5559 19.3301 29.5559 17.9217C29.4868 15.0656 28.3329 12.3429 26.3286 10.307" fill="#FAFBFC"/>
</g>
<defs>
<clipPath id="clip0_104_4790">
<rect width="36" height="36" fill="white" transform="translate(0.733154)"/>
</clipPath>
</defs>
</svg>
